<svg width="367" height="97" viewBox="0 0 367 97" fill="none" xmlns="http://www.w3.org/2000/svg">
<path d="M149.274 45.7579L145.539 44.0371L143.155 45.7579L134.113 45.7579L134.113 31.5036L146.657 31.5036L146.657 30.0937L142.922 28.3625L140.527 30.0937L134.113 30.0937L134.113 17.9438L130.051 17.9438L130.051 45.7579L116.715 45.7579L116.715 47.1575L130.051 47.1575L134.113 47.1575L149.274 47.1575L149.274 45.7579Z" fill="#AC0B0E"/>
<path d="M211.772 48.8074L215.834 48.8074L215.834 32.6041C217.723 34.8226 217.67 35.6105 218.577 36.4087C219.337 37.0722 220.329 37.0411 220.867 36.4294C222.85 34.1591 217.417 31.6607 215.845 30.9972L215.845 29.0483L220.772 29.0483L220.772 27.6488L215.845 27.6488L215.845 22.4135C217.68 21.9574 219.379 21.3769 220.55 20.6616L217.069 17.9766C217.069 17.9766 212.606 21.1384 206.001 22.766L206.001 23.9686C206.001 23.9686 208.639 23.7612 211.783 23.2429L211.783 27.6591L206.001 27.6591L206.001 29.0587L210.896 29.0587C210.58 30.2094 208.438 37.6113 205.357 42.0068L206.254 42.7117C206.254 42.7117 209.493 39.5602 211.783 35.4653L211.783 48.8281L211.772 48.8074Z" fill="#AC0B0E"/>
<path d="M238.323 38.959L238.323 37.5491L233.312 37.5491L233.312 17.9766L229.25 17.9766L229.25 37.5491L218.119 37.5491L218.119 38.959L229.25 38.959L229.25 48.8074L233.312 48.8074L233.312 38.959L238.323 38.959Z" fill="#AC0B0E"/>
<path d="M225.645 26.6858C226.479 27.2663 227.46 27.1316 227.924 26.4785C229.939 23.6172 221.921 21.4609 221.921 21.4609L221.383 22.1659C224.653 24.9545 224.506 25.8772 225.645 26.6858Z" fill="#AC0B0E"/>
<path d="M222.222 29.0063L221.621 29.6595C224.575 32.7695 224.333 33.6714 225.377 34.594C226.137 35.2575 227.128 35.2264 227.667 34.6148C229.967 31.9816 222.222 29.0063 222.222 29.0063Z" fill="#AC0B0E"/>
<path d="M310.71 28.8511L323.803 28.8511L323.803 27.4515L320.068 25.7099L317.663 27.4515L309.56 27.4515C310.277 22.9213 310.109 19.1581 310.024 17.9556L305.213 17.9556C305.54 21.5114 305.466 24.6629 305.118 27.4515L292.183 27.4515L292.183 28.8511L304.907 28.8511C302.945 40.493 295.834 45.3654 292.162 47.1588L292.162 48.7968C303.409 46.0081 307.682 36.8853 309.243 29.2035C310.066 42.867 320.712 48.7864 320.712 48.7864C321.778 45.5727 325.038 46.1014 325.038 46.1014L325.038 44.9403C314.835 41.4467 311.111 30.1573 310.71 28.8407L310.71 28.8511Z" fill="#AC0B0E"/>
<path d="M367.001 24.8399L363.266 23.1087L360.892 24.8296L357.02 24.8296C358.043 23.8655 360.006 21.8958 362.116 19.0138L357.294 17.521C357.294 17.521 356.007 22.6526 354.54 24.8296L344.602 24.8296C344.802 24.7466 344.982 24.6222 345.129 24.4564C347.704 21.6159 338.715 18.0082 338.715 18.0082L338.039 18.7028C341.363 22.072 341.405 23.4197 342.566 24.4149C342.787 24.6015 343.019 24.7363 343.262 24.8296L337.649 24.8296C337.438 24.1557 337.143 23.3575 337.143 23.3575L336.077 23.3575L336.045 23.5752C335.444 26.8096 333.703 27.5146 333.703 29.619C333.703 30.6143 334.41 31.7961 335.708 31.7961C337.512 31.7961 338.124 30.2099 338.124 28.0122C338.124 27.5768 338.039 26.8511 337.944 26.2187L362.306 26.2187L361.208 30.946L362.791 30.946L366.948 26.2187L366.98 26.1773L366.98 24.8296L367.001 24.8399Z" fill="#AC0B0E"/>
<path d="M349.364 23.4005C350.156 24.0951 351.19 24.0536 351.738 23.4316C354.133 20.6844 345.756 17.1597 345.756 17.1597L345.123 17.8335C348.204 21.0679 348.267 22.4571 349.354 23.4108L349.364 23.4005Z" fill="#AC0B0E"/>
<path d="M353.405 43.9362L353.405 37.8094L365.665 37.8094L365.665 36.4202L365.686 36.4202L361.951 34.689L359.567 36.4099L353.394 36.4099L353.394 34.2743L358.343 30.6148L358.343 29.2153L341.061 29.2153L341.061 30.6148L353.816 30.6148L349.375 34.2743L349.343 34.2743L349.343 36.4099L334.467 36.4099L334.467 37.8094L349.343 37.8094L349.343 43.9362C349.343 44.5789 348.879 44.6204 347.95 44.6204C347.117 44.6204 343.139 44.3612 342.295 44.3094L342.295 45.4601C347.961 46.0717 347.191 48.8189 347.191 48.8189C353.352 48.0414 353.394 43.9258 353.394 43.9258L353.405 43.9362Z" fill="#AC0B0E"/>
<path d="M261.967 32.086L261.967 30.5828C260.775 31.07 259.572 31.5055 258.401 31.8994L258.401 25.8348L261.967 25.8348L261.967 24.4249L258.401 24.4249L258.401 17.9561L254.339 17.9561L254.339 24.4249L249.654 24.4249L249.654 25.8348L254.339 25.8348L254.339 33.1538C251.057 34.0764 248.684 34.5326 248.684 34.5326L249.855 38.1091C251.479 37.456 252.978 36.7925 254.328 36.1601L254.328 43.7797L254.328 43.4376C254.318 44.6091 254.223 45.0237 251.944 45.0237C250.92 45.0237 249.96 44.9304 249.96 44.9304L249.96 45.822C252.946 46.3714 253.231 48.7973 253.231 48.7973L254.328 48.7973L258.39 48.8076L258.39 34.1282C260.036 33.2471 261.26 32.5214 261.956 32.086L261.967 32.086Z" fill="#AC0B0E"/>
<path d="M282.232 44.7853C278.508 44.1322 275.554 42.8364 273.222 41.3021C277.463 36.9895 279.658 32.3555 279.922 31.7957L279.953 31.7957L279.953 30.3962L272.41 30.3962L272.41 25.8348L281.916 25.8348L281.916 24.4249L278.181 22.6937L275.786 24.4249L272.399 24.4249L272.399 17.9561L268.337 17.9561L268.337 24.4249L262.862 24.4249L262.862 25.8348L268.337 25.8348L268.337 30.3962L262.862 30.3962L262.862 31.7957L263.495 31.7957C264.444 35.6522 266.143 38.6896 268.084 41.0636C263.558 45.5214 258.947 47.5222 258.947 47.5222L258.947 48.7869C263.632 48.2064 267.493 46.1641 270.585 43.6761C274.921 47.5844 279.426 48.8284 279.426 48.8284C280.08 46.4336 281.81 45.8635 282.222 45.7598L282.222 44.775L282.232 44.7853ZM265.341 31.7957L274.53 31.7957C273.349 34.5326 271.798 36.8755 270.141 38.8555C266.934 35.7662 265.626 32.5629 265.341 31.7957Z" fill="#AC0B0E"/>
<path d="M190.046 26.5919L174.758 26.5919C175.38 25.8041 176.013 24.9229 176.625 23.9588L192.915 23.9588L192.915 22.5592L192.905 22.5592L192.926 22.5592L189.191 20.828L186.796 22.5592L186.817 22.5592L177.49 22.5592C178.123 21.4604 178.714 20.2786 179.21 19.0242L174.821 17.9253C174.821 17.9253 173.724 24.8503 169.883 30.2825L170.749 30.9874C170.749 30.9874 171.392 30.4173 172.342 29.4221L172.342 34.0664L169.113 34.0664L169.113 35.4659L172.342 35.4659L172.342 43.6557L176.404 43.6557L176.404 42.9093L186.015 42.9093C185.984 44.2569 185.709 45.0966 184.053 45.0966L178.018 45.0966L178.018 45.9675C178.018 45.9675 183.04 46.3718 183.04 48.7769C183.04 48.7769 190.024 48.7147 190.056 42.9093L192.947 42.9093L192.947 41.5097L190.077 41.5097L190.077 35.4555L192.947 35.4555L192.947 34.056L190.077 34.056L190.077 26.5816L190.046 26.5919ZM185.994 41.5305L183.947 41.5305C183.947 41.5305 183.968 41.5097 183.979 41.4994C186.29 38.8662 178.545 35.9013 178.545 35.9013L177.944 36.544C180.898 39.6541 180.656 40.556 181.7 41.4683C181.721 41.489 181.753 41.5097 181.774 41.5201L176.383 41.5201L176.383 35.4659L185.984 35.4659L185.984 41.5201L185.994 41.5305ZM185.994 34.0664L183.905 34.0664C183.905 34.0664 183.958 34.0249 183.979 33.9938C186.29 31.3607 178.545 28.3957 178.545 28.3957L177.944 29.0385C180.898 32.1485 180.656 33.0504 181.7 33.9627C181.742 34.0042 181.795 34.0249 181.837 34.056L176.393 34.056L176.393 27.9811L185.994 27.9811L185.994 34.056L185.994 34.0664Z" fill="#AC0B0E"/>
<path d="M166.889 23.5441C167.648 24.2076 168.651 24.1765 169.168 23.5649C171.478 20.9317 163.734 17.9668 163.734 17.9668L163.133 18.6199C166.087 21.7299 165.844 22.6319 166.889 23.5441Z" fill="#AC0B0E"/>
<path d="M164.208 30.4191C164.968 31.093 165.96 31.0515 166.498 30.4399C168.808 27.8067 161.064 24.8418 161.064 24.8418L160.463 25.4845C163.417 28.5946 163.174 29.4965 164.219 30.4088L164.208 30.4191Z" fill="#AC0B0E"/>
<path d="M170.722 22.5376C169.593 25.4196 166.08 34.1691 164.687 35.6723C163.368 37.0718 160.889 36.3358 160.889 36.3358L160.889 37.6109C160.889 37.6109 164.212 38.347 164.212 45.0335C164.212 47.1898 164.233 48.7863 164.233 48.7863L166.913 48.7863C166.913 48.7863 166.997 40.7935 167.135 38.1189C167.261 35.6205 171.471 24.3311 172.146 22.5376L170.711 22.5376L170.722 22.5376Z" fill="#AC0B0E"/>
<path d="M121.936 66.6495C120.933 66.3592 120.258 65.8616 120.258 64.8664C120.258 63.4669 121.704 62.5131 122.843 62.5131C125.122 62.5131 126.282 63.6224 126.641 65.5091L128.35 65.5091C128.35 62.6168 125.86 61.0825 122.938 61.0825C120.395 61.0825 117.789 62.368 117.789 65.1567C117.789 66.5873 118.486 68.049 120.912 68.671C122.864 69.1894 126.05 69.6973 126.282 71.667C126.43 72.9525 125.481 74.1447 123.307 74.1447C121.514 74.1447 119.076 73.4501 118.823 70.6407L117.262 70.6407C117.325 74.0721 119.931 75.5857 123.149 75.5857C125.934 75.5857 128.751 74.3416 128.751 71.242C128.751 67.8106 124.51 67.3855 121.936 66.6391L121.936 66.6495Z" fill="#AC0B0E"/>
<path d="M335.623 68.7566C334.884 68.5597 334.198 68.1865 334.346 67.4401C334.483 66.787 335.327 66.4034 336.235 66.4034C337.49 66.4034 338.703 66.8181 338.957 68.1865L340.244 68.1865C340.244 66.082 338.429 64.9624 336.298 64.9624C334.441 64.9624 332.542 65.8954 332.542 67.9377C332.542 68.9432 332.932 70.0214 334.937 70.5812C337.564 71.3172 338.714 71.8563 338.714 72.893C338.714 73.5461 337.986 74.1163 336.562 74.1163C335.486 74.1163 333.618 73.9919 333.439 71.9496L332.162 71.9496C332.204 74.448 334.103 75.5573 336.456 75.5573C338.482 75.5573 340.539 74.6554 340.539 72.385C340.539 70.8507 339.421 69.7726 335.623 68.767L335.623 68.7566Z" fill="#AC0B0E"/>
<path d="M137.109 64.9738C135.769 64.9738 134.598 65.6476 134.049 66.5599L134.007 66.5599L134.007 61.418L131.76 61.418L131.76 75.268L134.007 75.268L134.007 69.3589C134.007 67.8868 134.978 66.4044 136.476 66.4044C137.816 66.4044 138.407 67.3996 138.47 68.9754L138.47 75.2784L140.717 75.2784L140.717 68.3948C140.717 66.1245 139.335 64.9841 137.109 64.9841L137.109 64.9738Z" fill="#AC0B0E"/>
<path d="M252.402 64.9738C251.062 64.9738 249.891 65.6476 249.342 66.5599L249.3 66.5599L249.3 61.418L247.053 61.418L247.053 75.268L249.3 75.268L249.3 69.3589C249.3 67.8868 250.271 66.4044 251.769 66.4044C253.109 66.4044 253.7 67.3996 253.763 68.9754L253.763 75.2784L256.01 75.2784L256.01 68.3948C256.01 66.1245 254.628 64.9841 252.402 64.9841L252.402 64.9738Z" fill="#AC0B0E"/>
<path d="M187.121 64.9738C185.781 64.9738 184.61 65.6476 184.061 66.5599L184.019 66.5599L184.019 61.418L181.771 61.418L181.771 75.268L184.019 75.268L184.019 69.3589C184.019 67.8868 184.979 66.4044 186.488 66.4044C187.838 66.4044 188.418 67.3996 188.482 68.9754L188.482 75.2784L190.729 75.2784L190.729 68.3948C190.729 66.1245 189.347 64.9841 187.121 64.9841L187.121 64.9738Z" fill="#AC0B0E"/>
<path d="M161.792 64.9722C160.453 64.9722 159.303 65.646 158.617 66.7553L158.575 66.7138L158.575 65.2417L156.443 65.2417L156.443 75.2664L158.691 75.2664L158.691 69.3573C158.691 67.8852 159.661 66.4028 161.159 66.4028C162.499 66.4028 163.101 67.398 163.154 68.9737L163.154 75.2768L165.401 75.2768L165.401 68.3932C165.401 66.1229 164.019 64.9825 161.782 64.9825L161.792 64.9722Z" fill="#AC0B0E"/>
<path d="M287.399 64.9722C286.059 64.9722 284.909 65.646 284.212 66.7553L284.17 66.7138L284.17 65.2417L282.039 65.2417L282.039 75.2664L284.286 75.2664L284.286 69.3573C284.286 67.8852 285.257 66.4028 286.755 66.4028C288.095 66.4028 288.686 67.398 288.749 68.9737L288.749 75.2768L290.996 75.2768L290.996 68.3932C290.996 66.1229 289.614 64.9825 287.388 64.9825L287.399 64.9722Z" fill="#AC0B0E"/>
<path d="M176.138 66.6205L176.096 66.6205C175.526 65.4801 174.355 64.9722 173.078 64.9722C170.177 64.9722 168.457 67.3047 168.457 70.0001C168.457 72.8717 169.797 75.2664 173.036 75.2664C174.302 75.2664 175.463 74.6029 176.096 73.504L176.138 73.504L176.138 75.0383C176.138 76.6866 175.325 77.8166 173.511 77.8166C172.171 77.8166 170.873 77.402 170.535 76.1165L168.816 76.1165C169.037 78.4697 171.327 79.2369 173.374 79.2369C176.613 79.2369 178.385 77.7648 178.385 74.7377L178.385 65.2313L176.138 65.2313L176.138 66.6101L176.138 66.6205ZM173.395 73.8461C171.517 73.8461 170.715 71.835 170.715 70.2074C170.715 68.5798 171.39 66.3924 173.384 66.3924C175.378 66.3924 176.138 68.2999 176.138 70.0312C176.138 71.7624 175.389 73.8461 173.395 73.8461Z" fill="#AC0B0E"/>
<path d="M208.82 65.2407L206.572 65.2407L206.572 75.2654L208.82 75.2654L208.82 65.2407Z" fill="#AC0B0E"/>
<path d="M208.82 61.418L206.572 61.418L206.572 63.5121L208.82 63.5121L208.82 61.418Z" fill="#AC0B0E"/>
<path d="M222.84 61.418L211.424 61.418L211.424 62.8486L215.887 62.8486L215.887 75.268L218.356 75.268L218.356 62.8486L222.84 62.8486L222.84 61.418Z" fill="#AC0B0E"/>
<path d="M227.596 64.9722C224.557 64.9722 222.658 67.4187 222.658 70.2696C222.658 73.3693 224.431 75.5463 227.659 75.5463C229.864 75.5463 231.806 74.323 232.28 72.1356L230.645 72.1356C230.244 73.2449 229.083 74.1675 227.67 74.126C225.496 74.0638 224.768 72.1045 224.853 70.5495L232.47 70.5495C232.85 67.5431 230.824 64.9825 227.606 64.9825L227.596 64.9722ZM224.905 69.1085C224.969 67.6157 226.034 66.351 227.585 66.4028C229.242 66.4546 230.054 67.709 230.149 69.1085L224.895 69.1085L224.905 69.1085Z" fill="#AC0B0E"/>
<path d="M316.485 64.9722C313.446 64.9722 311.547 67.4187 311.547 70.2696C311.547 73.3693 313.319 75.5463 316.537 75.5463C318.742 75.5463 320.684 74.323 321.148 72.1356L319.513 72.1356C319.112 73.2449 317.951 74.1675 316.537 74.126C314.364 74.0638 313.636 72.1045 313.72 70.5495L321.338 70.5495C321.707 67.5431 319.692 64.9825 316.474 64.9825L316.485 64.9722ZM313.794 69.1085C313.857 67.6157 314.923 66.351 316.485 66.4028C318.141 66.4546 318.953 67.709 319.048 69.1085L313.794 69.1085Z" fill="#AC0B0E"/>
<path d="M239.855 66.4138C240.942 66.3308 242.282 66.7455 242.788 68.5804L244.455 68.5804C244.244 66.1235 242.229 64.9624 239.855 64.9624C236.5 64.9624 234.822 67.326 234.822 70.3531C234.822 73.3802 236.574 75.5262 239.781 75.5262C242.408 75.5262 244.043 74.1163 244.455 71.4935L242.756 71.4935C242.545 72.9448 241.501 74.2096 239.781 74.0955C237.829 73.9608 237.08 72.0118 237.08 70.3531C237.08 67.326 238.694 66.4967 239.855 66.4034L239.855 66.4138Z" fill="#AC0B0E"/>
<path d="M275.929 69.4833C275.929 71.3493 275.813 74.1691 272.616 74.1691C269.419 74.1691 269.303 71.3493 269.303 69.4833L269.303 61.418L266.834 61.418L266.834 70.2816C266.834 73.827 269.145 75.5894 272.616 75.5894C276.087 75.5894 278.397 73.827 278.397 70.2816L278.397 61.418L275.929 61.418L275.929 69.4833Z" fill="#AC0B0E"/>
<path d="M296.915 61.418L294.668 61.418L294.668 63.5121L296.915 63.5121L296.915 61.418Z" fill="#AC0B0E"/>
<path d="M296.915 65.2407L294.668 65.2407L294.668 75.2654L296.915 75.2654L296.915 65.2407Z" fill="#AC0B0E"/>
<path d="M305.145 72.9432L305.102 72.9432L302 65.2407L299.553 65.2407L303.267 75.2654L305.904 75.2654L309.439 65.2407L307.719 65.2407L305.145 72.9432Z" fill="#AC0B0E"/>
<path d="M326.637 67.1807L326.594 67.1807L326.594 65.2421L324.484 65.2421L324.484 75.2668L326.732 75.2668L326.732 70.4981C326.732 68.2692 327.977 66.6002 329.496 66.6002C329.812 66.6002 330.15 66.6313 330.467 66.6935L330.467 65.211C330.245 65.1903 330.15 65.1592 329.623 65.1592C328.261 65.1592 326.9 66.1129 326.637 67.1911L326.637 67.1807Z" fill="#AC0B0E"/>
<path d="M345.628 65.2407L343.381 65.2407L343.381 75.2654L345.628 75.2654L345.628 65.2407Z" fill="#AC0B0E"/>
<path d="M345.628 61.418L343.381 61.418L343.381 63.5121L345.628 63.5121L345.628 61.418Z" fill="#AC0B0E"/>
<path d="M352.184 62.235L349.937 62.235L349.937 65.148L348.238 65.148L348.238 66.5787L349.937 66.5787L349.937 72.7987C350 74.4678 350.391 75.3593 352.764 75.3593C353.26 75.3593 353.735 75.2971 354.22 75.2453L354.22 73.7628C353.904 73.8354 353.587 73.8354 353.271 73.8354C352.269 73.8354 352.184 73.3689 352.184 72.4566L352.184 66.5683L354.21 66.5683L354.21 65.1377L352.184 65.1377L352.184 62.2246L352.184 62.235Z" fill="#AC0B0E"/>
<path d="M152.83 73.0894C152.83 73.0894 152.83 73.0583 152.83 73.0375L152.83 67.8749C152.83 65.76 150.73 64.9722 148.747 64.9722C146.478 64.9722 144.263 65.7289 144.104 68.3103L145.539 68.3103C145.982 66.4443 147.576 66.3406 148.599 66.4339C149.485 66.5168 150.709 66.9108 150.709 68.0718C150.709 69.3884 149.285 69.1811 147.649 69.4921C145.761 69.7098 143.725 70.1141 143.725 72.6229C143.725 74.5822 145.381 75.5463 147.217 75.5463C148.42 75.5463 149.854 75.1835 150.741 74.3334L150.741 75.5463L152.83 75.5463L152.83 73.8669L152.83 73.0997L152.83 73.0894ZM150.572 71.8972C150.572 73.2967 149.032 74.126 148.04 74.126C147.248 74.126 145.972 73.5248 145.972 72.5192C145.972 71.3581 146.837 71.0056 147.808 70.8501C148.81 70.6739 149.876 70.6946 150.572 70.2489L150.572 71.8972Z" fill="#AC0B0E"/>
<path d="M203.017 73.0894L203.017 67.8749C203.017 65.76 200.928 64.9722 198.934 64.9722C196.666 64.9722 194.45 65.7289 194.292 68.3103L195.727 68.3103C196.17 66.4443 197.763 66.3406 198.786 66.4339C199.673 66.5168 200.897 66.9108 200.897 68.0718C200.897 69.3884 199.472 69.1811 197.837 69.4921C195.948 69.7098 193.912 70.1141 193.912 72.6229C193.912 74.5822 195.569 75.5463 197.404 75.5463C198.607 75.5463 200.042 75.1835 200.928 74.3334L200.928 75.5463L203.017 75.5463L203.017 73.8669L203.017 73.0997L203.017 73.0894ZM200.77 71.8972C200.77 73.2967 199.23 74.126 198.238 74.126C197.447 74.126 196.17 73.5248 196.17 72.5192C196.17 71.3581 197.035 71.0056 198.006 70.8501C199.008 70.6739 200.084 70.6946 200.77 70.2489L200.77 71.8972Z" fill="#AC0B0E"/>
<path d="M361.461 72.7255L361.418 72.7255L358.369 65.2407L355.9 65.2407L360.163 75.2343L358.644 79.2877L360.68 79.2877C360.796 79.0078 366.018 65.2407 366.018 65.2407L364.151 65.2407L361.471 72.7255L361.461 72.7255Z" fill="#AC0B0E"/>
<path d="M49.2078 -4.23188e-06C22.0717 -1.89818e-06 1.92732e-06 21.6873 4.29687e-06 48.3507C6.66641e-06 75.0141 22.0718 96.7014 49.2078 96.7014C76.3438 96.7014 98.4155 75.0141 98.4155 48.3507C98.4155 21.6873 76.3438 -6.56559e-06 49.2078 -4.23188e-06ZM49.2078 95.1464C22.9475 95.1464 1.58259 74.1536 1.58259 48.3507C1.58258 22.5478 22.9474 1.55502 49.2078 1.55501C75.4681 1.55501 96.8329 22.5478 96.8329 48.3507C96.8329 74.1536 75.4681 95.1464 49.2078 95.1464Z" fill="#AC0B0E"/>
<path d="M86.8412 48.52L86.7357 49.8159L88.8774 51.2776L86.5352 52.4179L86.4297 53.7345L89.8797 51.9411L92.2641 52.1173L92.3485 50.9977L89.9747 50.8214L86.8412 48.52Z" fill="#AC0B0E"/>
<path d="M87.2964 54.2722L86.3574 54.0752L85.3867 58.4085L86.3257 58.6159L86.6844 56.9883L91.3056 57.9938L91.5482 56.8846L86.9377 55.8894L87.2964 54.2722Z" fill="#AC0B0E"/>
<path d="M85.0762 59.2258L84.7188 60.2998L90.1238 62.0367L90.4813 60.9627L85.0762 59.2258Z" fill="#AC0B0E"/>
<path d="M88.0588 62.9901C87.7317 62.845 87.4257 62.7932 87.1409 62.8243C86.856 62.8657 86.5922 62.9694 86.3601 63.156C86.1175 63.3322 85.8326 63.6536 85.4739 64.0994C85.1257 64.5452 84.862 64.8147 84.6931 64.8976C84.556 64.9598 84.4294 64.9702 84.3028 64.908C84.1656 64.8458 84.0918 64.7525 84.0601 64.6074C84.0074 64.3793 84.0601 64.1201 84.1973 63.8195C84.3239 63.5292 84.4927 63.3426 84.672 63.2493C84.8514 63.156 85.0941 63.1456 85.3789 63.2182L85.801 62.1712C85.3156 61.9742 84.862 61.9742 84.4294 62.1712C83.9968 62.3681 83.6381 62.7932 83.3427 63.4255C83.1633 63.8195 83.0684 64.1823 83.0684 64.5141C83.0684 64.8458 83.1422 65.1361 83.3005 65.3849C83.4587 65.6337 83.6803 65.8203 83.9441 65.9343C84.3555 66.1105 84.7776 66.1105 85.1996 65.9343C85.5055 65.7995 85.8537 65.4885 86.2441 65.0013C86.55 64.6177 86.7505 64.3793 86.8455 64.2756C86.9932 64.1305 87.1198 64.0372 87.2358 64.0061C87.3519 63.975 87.4785 63.9854 87.5945 64.0372C87.7845 64.1201 87.9111 64.2756 87.9849 64.5141C88.0482 64.7421 88.006 65.0324 87.8583 65.3538C87.7106 65.6648 87.5207 65.8825 87.278 65.9965C87.0354 66.1105 86.7294 66.1209 86.3601 66.0276L86.0014 67.0747C86.6133 67.2613 87.1514 67.2509 87.6051 67.0436C88.0693 66.8362 88.4491 66.4008 88.7446 65.7581C88.945 65.3123 89.0505 64.9184 89.0611 64.5659C89.0611 64.2134 88.9872 63.892 88.7973 63.6225C88.6074 63.3426 88.3753 63.1456 88.0693 63.0109L88.0588 62.9901Z" fill="#AC0B0E"/>
<path d="M84.6022 69.0459C84.3701 69.0873 84.1274 69.1703 83.8636 69.2947C84.0746 68.8489 84.1274 68.4446 84.0324 68.0818C83.9375 67.7293 83.7054 67.439 83.3467 67.2109C83.0618 67.0347 82.7664 66.9414 82.4604 66.9414C82.1545 66.9414 81.8801 67.0243 81.648 67.2006C81.4159 67.3768 81.131 67.7086 80.7934 68.2165L79.4746 70.2069L84.254 73.2444L84.8765 72.301L82.8824 71.0363L83.009 70.8393C83.1567 70.6216 83.2728 70.4765 83.3783 70.3935C83.4838 70.3106 83.6104 70.2691 83.7687 70.238C83.9269 70.2069 84.2646 70.1966 84.8026 70.1862L86.2903 70.1655L87.0394 69.0355L85.7311 69.0148C85.2141 69.0148 84.8343 69.0148 84.6022 69.0562L84.6022 69.0459ZM83.0934 68.9422C83.0618 69.077 82.893 69.3776 82.587 69.8337L82.1228 70.5387L80.9095 69.7715L81.3948 69.0355C81.648 68.6519 81.8063 68.4239 81.8696 68.3513C81.9962 68.2165 82.1333 68.1336 82.2916 68.1129C82.4499 68.0921 82.6081 68.1336 82.7664 68.2373C82.9035 68.3306 83.009 68.4342 83.0618 68.5586C83.1146 68.683 83.1251 68.8178 83.0934 68.9526L83.0934 68.9422Z" fill="#AC0B0E"/>
<path d="M80.2003 76.5396L79.0503 75.534L80.9389 73.4295L80.232 72.8075L78.3329 74.9016L77.3833 74.0827L79.4301 71.8227L78.7021 71.2007L75.9063 74.3004L80.1581 78.0117L83.0279 74.8291L82.321 74.2071L80.2003 76.5396Z" fill="#AC0B0E"/>
<path d="M74.4511 75.6177L76.097 79.6608L72.2777 77.4112L71.3281 78.1991L76.5506 81.1847L77.4896 80.4072L75.3795 74.8506L74.4511 75.6177Z" fill="#AC0B0E"/>
<path d="M70.6927 78.5323L69.7402 79.1655L72.9268 83.7936L73.8793 83.1604L70.6927 78.5323Z" fill="#AC0B0E"/>
<path d="M67.6448 80.4379L69.4173 83.7449L65.5875 81.5057L64.5957 82.0137L67.2439 86.9586L68.1934 86.4714L66.4632 83.2473L70.2191 85.4243L71.2425 84.8956L68.5944 79.9507L67.6448 80.4379Z" fill="#AC0B0E"/>
<path d="M63.3085 82.5533L62.2218 82.9162L63.2241 85.85C63.3718 86.275 63.4562 86.5757 63.4879 86.7623C63.5195 86.9489 63.4773 87.1355 63.3613 87.3117C63.2452 87.4879 63.0342 87.6227 62.7282 87.7264C62.4223 87.83 62.1585 87.8404 61.937 87.7678C61.7154 87.6953 61.5466 87.5605 61.42 87.3532C61.3461 87.2288 61.2301 86.9385 61.0718 86.4823L60.0906 83.6107L59.0039 83.9736L59.9746 86.8037C60.175 87.3946 60.3649 87.83 60.5443 88.1099C60.6603 88.2965 60.8292 88.4624 61.0507 88.5972C61.2723 88.7319 61.536 88.8149 61.842 88.846C62.148 88.8771 62.5594 88.8045 63.0764 88.6283C63.4984 88.4831 63.8255 88.3173 64.0576 88.1203C64.2897 87.9233 64.448 87.716 64.5429 87.4776C64.6379 87.2391 64.6696 86.9903 64.6379 86.7C64.6062 86.4201 64.4796 85.964 64.2581 85.3213L63.298 82.543L63.3085 82.5533Z" fill="#AC0B0E"/>
<path d="M54.168 84.8748L54.4001 87.0622L52.1528 87.2902L51.9313 85.1028L50.7813 85.2169L51.3721 90.7838L52.5115 90.6698L52.2583 88.2336L54.495 88.0055L54.7483 90.4417L55.8877 90.3277L55.3074 84.7607L54.168 84.8748Z" fill="#AC0B0E"/>
<path d="M46.1534 86.3996C46.4278 86.1197 46.7865 85.985 47.2085 86.0057C47.5145 86.0264 47.7677 86.1197 47.9681 86.296C48.1686 86.4722 48.2952 86.7106 48.348 87.0009L49.498 86.7936C49.3925 86.3374 49.2131 85.985 48.9704 85.7362C48.559 85.3111 48.0103 85.0831 47.314 85.0416C46.5227 85.0001 45.858 85.2178 45.341 85.7154C44.8241 86.2027 44.5392 86.9076 44.4864 87.8406C44.4337 88.7218 44.6447 89.4267 45.0984 89.9554C45.5521 90.4841 46.164 90.7744 46.9131 90.8159C47.525 90.847 48.0314 90.7226 48.4429 90.4531C48.8544 90.1731 49.1603 89.7377 49.3714 89.1365L48.2741 88.7322C48.158 89.1365 47.9787 89.4267 47.7466 89.603C47.5145 89.7792 47.2507 89.8621 46.9447 89.8414C46.5333 89.8207 46.2062 89.6548 45.9635 89.3438C45.7209 89.0328 45.6154 88.5248 45.6576 87.8095C45.6998 87.146 45.8475 86.6692 46.1323 86.3893L46.1534 86.3996Z" fill="#AC0B0E"/>
<path d="M38.3027 89.4678L42.5441 90.3386L42.734 89.416L39.6216 88.7732L39.9381 87.2908L42.734 87.861L42.9344 86.9383L40.1385 86.3681L40.3917 85.1552L43.3986 85.7669L43.5886 84.8339L39.4633 83.9941L38.3027 89.4678Z" fill="#AC0B0E"/>
<path d="M34.3052 82.2539L33.9781 83.1455L35.5607 83.7053L33.957 88.0697L35.0437 88.4533L36.6474 84.0888L38.23 84.6486L38.5571 83.7571L34.3052 82.2539Z" fill="#AC0B0E"/>
<path d="M32.4665 81.3466L30.0156 86.3887L31.0534 86.8757L33.5042 81.8336L32.4665 81.3466Z" fill="#AC0B0E"/>
<path d="M23.8641 82.8638L24.898 83.4961L25.9847 82.6668L27.9155 83.8486L27.6517 85.1859L28.7068 85.839L29.7829 79.9092L28.749 79.2769L23.8535 82.8638L23.8641 82.8638ZM28.1054 82.8534L26.7866 82.0448L28.5591 80.6867L28.1054 82.8534Z" fill="#AC0B0E"/>
<path d="M25.4159 76.8803L23.9388 78.5389L22.2402 77.0876L23.7067 75.4289L22.8415 74.6929L19.1172 78.9122L19.9823 79.6586L21.6177 77.8029L23.3163 79.2543L21.681 81.0995L22.5461 81.846L26.281 77.6163L25.4159 76.8803Z" fill="#AC0B0E"/>
<path d="M18.3388 73.6165L17.6002 74.2178L18.4443 75.213L17.8851 75.6692C17.6741 75.6277 17.4525 75.5344 17.2204 75.41C16.9989 75.2856 16.7984 75.1301 16.6507 74.9538C16.3342 74.591 16.2181 74.1867 16.2814 73.7409C16.3447 73.3055 16.6401 72.8701 17.1571 72.4451C17.6424 72.0511 18.0961 71.8645 18.5287 71.8853C18.9613 71.906 19.3411 72.1133 19.6576 72.4865C19.8686 72.7354 19.9847 72.9945 19.9952 73.2641C20.0163 73.5336 19.9425 73.7824 19.7737 74.0208L20.6704 74.7465C20.9975 74.3318 21.1558 73.8861 21.1241 73.3988C21.103 72.9116 20.8604 72.4036 20.4067 71.8645C20.0585 71.4499 19.6998 71.17 19.32 71.0145C18.8241 70.8071 18.3177 70.7553 17.8112 70.859C17.2943 70.9626 16.8089 71.2011 16.3553 71.5743C15.9333 71.9164 15.6167 72.3207 15.4057 72.7768C15.1842 73.233 15.1314 73.7098 15.2158 74.2074C15.3108 74.6947 15.5429 75.1716 15.9227 75.6173C16.2181 75.9698 16.5874 76.2601 17.02 76.4985C17.4525 76.7369 17.8323 76.8613 18.1594 76.9028L19.9003 75.4826L18.3177 73.6062L18.3388 73.6165Z" fill="#AC0B0E"/>
<path d="M17.3363 67.9029L14.0551 69.7897L16.1546 65.9332L15.5955 64.9795L10.6895 67.8096L11.2275 68.7115L14.4243 66.8662L12.3881 70.6605L12.9684 71.635L17.8744 68.8048L17.3363 67.9029Z" fill="#AC0B0E"/>
<path d="M13.9291 61.0962L7.82031 61.0962L8.26344 62.2158L9.63501 62.1847L10.458 64.2684L9.43455 65.1807L9.88822 66.3211L14.3617 62.2054L13.9185 61.0962L13.9291 61.0962ZM11.2281 63.5842L10.6584 62.164L12.9057 62.1121L11.2281 63.5842Z" fill="#AC0B0E"/>
<path d="M12.6955 57.1962L10.5116 57.6627L10.0368 55.5064L12.2208 55.0399L11.9781 53.9307L6.41797 55.1228L6.66063 56.2217L9.08726 55.7034L9.57258 57.8597L7.13541 58.378L7.37807 59.4873L12.9382 58.2951L12.6955 57.1962Z" fill="#AC0B0E"/>
<path d="M6.87311 52.8524C7.16852 53.0079 7.47449 53.0804 7.80156 53.0597C8.16028 53.039 8.45569 52.9457 8.6878 52.7798C8.91991 52.6139 9.09927 52.3962 9.22588 52.1267C9.35249 51.8571 9.45799 51.4425 9.55295 50.8827C9.6479 50.3332 9.75341 49.9704 9.86946 49.8253C9.95387 49.7112 10.0699 49.649 10.2071 49.6387C10.3548 49.6387 10.4708 49.6801 10.5658 49.7942C10.7135 49.9704 10.7979 50.2192 10.819 50.5509C10.8401 50.8723 10.7874 51.1107 10.6713 51.2766C10.5552 51.4425 10.3548 51.5565 10.0594 51.6291L10.1754 52.7591C10.6924 52.7072 11.1039 52.4999 11.3887 52.1267C11.6842 51.7535 11.8002 51.2144 11.758 50.5198C11.7264 50.0948 11.642 49.732 11.4942 49.4313C11.3465 49.1307 11.1355 48.913 10.8718 48.7678C10.608 48.6227 10.3337 48.5605 10.0488 48.5812C9.59515 48.6123 9.22588 48.7989 8.94101 49.1618C8.73 49.421 8.57175 49.8564 8.45569 50.468C8.36074 50.9449 8.29743 51.2559 8.26578 51.3906C8.20248 51.5876 8.13917 51.7328 8.04422 51.8053C7.94926 51.8883 7.84376 51.9297 7.7066 51.9401C7.49559 51.9505 7.30568 51.8675 7.13687 51.7016C6.96806 51.5254 6.87311 51.2559 6.85201 50.893C6.83091 50.5509 6.90476 50.271 7.06302 50.0637C7.22128 49.846 7.49559 49.7009 7.86486 49.6076L7.6855 48.519C7.05247 48.6331 6.58824 48.8819 6.28228 49.2862C5.97631 49.6801 5.83915 50.2399 5.89191 50.9449C5.92356 51.4321 6.01851 51.826 6.17677 52.1474C6.33503 52.4688 6.56714 52.7072 6.86256 52.8627L6.87311 52.8524Z" fill="#AC0B0E"/>
<path d="M35.9886 53.8804L35.1973 53.8804L35.1973 59.0223L35.9886 59.0223L35.9886 53.8804Z" fill="#AC0B0E"/>
<path d="M37.6897 52.4277L36.8984 52.4277L36.8984 58.1606L37.6897 58.1606L37.6897 52.4277Z" fill="#AC0B0E"/>
<path d="M41.096 50.4834L40.3047 50.4834L40.3047 56.6516L41.096 56.6516L41.096 50.4834Z" fill="#AC0B0E"/>
<path d="M39.4007 51.4102L38.6094 51.4102L38.6094 57.3711L39.4007 57.3711L39.4007 51.4102Z" fill="#AC0B0E"/>
<path d="M42.7952 49.8037L42.0039 49.8037L42.0039 56.1897L42.7952 56.1897L42.7952 49.8037Z" fill="#AC0B0E"/>
<path d="M44.4925 49.2754L43.7012 49.2754L43.7012 55.7443L44.4925 55.7443L44.4925 49.2754Z" fill="#AC0B0E"/>
<path d="M34.2913 55.4819L33.5 55.4819L33.5 60.0952L34.2913 60.0952L34.2913 55.4819Z" fill="#AC0B0E"/>
<path d="M32.594 57.7163L31.8027 57.7163L31.8027 61.2825L32.594 61.2825L32.594 57.7163Z" fill="#AC0B0E"/>
<path d="M30.8811 60.0547L30.0898 60.0547L30.0898 62.6257L30.8811 62.6257L30.8811 60.0547Z" fill="#AC0B0E"/>
<path d="M29.1819 61.9341L28.3906 61.9341L28.3906 63.7275L29.1819 63.7275L29.1819 61.9341Z" fill="#AC0B0E"/>
<path d="M27.4886 63.3198L26.6973 63.3198L26.6973 64.626L27.4886 64.626L27.4886 63.3198Z" fill="#AC0B0E"/>
<path d="M25.7854 64.4941L24.9941 64.4941L24.9941 65.4583L25.7854 65.4583L25.7854 64.4941Z" fill="#AC0B0E"/>
<path d="M63.2288 53.8804L62.4375 53.8804L62.4375 59.0223L63.2288 59.0223L63.2288 53.8804Z" fill="#AC0B0E"/>
<path d="M61.51 52.4277L60.7188 52.4277L60.7188 58.1606L61.51 58.1606L61.51 52.4277Z" fill="#AC0B0E"/>
<path d="M58.1155 50.4834L57.3242 50.4834L57.3242 56.6516L58.1155 56.6516L58.1155 50.4834Z" fill="#AC0B0E"/>
<path d="M59.8147 51.4102L59.0234 51.4102L59.0234 57.3711L59.8147 57.3711L59.8147 51.4102Z" fill="#AC0B0E"/>
<path d="M56.4026 49.8037L55.6113 49.8037L55.6113 56.1897L56.4026 56.1897L56.4026 49.8037Z" fill="#AC0B0E"/>
<path d="M54.7034 49.2754L53.9121 49.2754L53.9121 55.7443L54.7034 55.7443L54.7034 49.2754Z" fill="#AC0B0E"/>
<path d="M64.9202 55.4819L64.1289 55.4819L64.1289 60.0952L64.9202 60.0952L64.9202 55.4819Z" fill="#AC0B0E"/>
<path d="M66.6155 57.7163L65.8242 57.7163L65.8242 61.2825L66.6155 61.2825L66.6155 57.7163Z" fill="#AC0B0E"/>
<path d="M68.3206 60.0547L67.5293 60.0547L67.5293 62.6257L68.3206 62.6257L68.3206 60.0547Z" fill="#AC0B0E"/>
<path d="M70.0218 61.9341L69.2305 61.9341L69.2305 63.7275L70.0218 63.7275L70.0218 61.9341Z" fill="#AC0B0E"/>
<path d="M71.7171 63.3203L70.9258 63.3203L70.9258 64.6265L71.7171 64.6265L71.7171 63.3203Z" fill="#AC0B0E"/>
<path d="M73.4222 64.4941L72.6309 64.4941L72.6309 65.4583L73.4222 65.4583L73.4222 64.4941Z" fill="#AC0B0E"/>
<path d="M43.9331 74.5622C44.2074 74.3134 44.3973 74.1268 44.5029 74.0024C44.6611 73.8054 44.7772 73.6085 44.851 73.4322C44.9249 73.2456 44.9565 73.059 44.9565 72.8621C44.9565 72.5096 44.8299 72.209 44.5767 71.9809C44.3235 71.7425 43.9648 71.6284 43.5217 71.6284C43.1102 71.6284 42.7726 71.7321 42.4982 71.9291C42.2239 72.1364 42.0657 72.4681 42.0129 72.9346L42.8781 73.0176C42.8886 72.7688 42.9519 72.5925 43.068 72.4889C43.1735 72.3748 43.3212 72.3334 43.5006 72.3334C43.6799 72.3334 43.8276 72.3852 43.9331 72.4889C44.0386 72.5925 44.0914 72.7377 44.0914 72.9243C44.0914 73.1005 44.0281 73.2664 43.912 73.4426C43.8276 73.567 43.585 73.8158 43.1946 74.1683C42.7093 74.6037 42.3822 74.9665 42.2134 75.2361C42.0446 75.5056 41.9496 75.7855 41.918 76.0861L44.9565 76.0861L44.9565 75.2983L43.2368 75.2983C43.279 75.2257 43.3423 75.1428 43.4161 75.0598C43.49 74.9769 43.6588 74.8214 43.9331 74.5622Z" fill="#AC0B0E"/>
<path d="M47.6579 71.6177C47.2148 71.6177 46.8772 71.7628 46.6345 72.0738C46.3391 72.447 46.1914 73.0483 46.1914 73.888C46.1914 74.7277 46.3286 75.3394 46.5923 75.6711C46.8561 76.0028 47.2148 76.1687 47.6579 76.1687C48.1011 76.1687 48.4387 76.0132 48.6813 75.7126C48.9768 75.3394 49.1245 74.7381 49.1245 73.8984C49.1245 73.0587 48.9768 72.4574 48.6813 72.0842C48.4387 71.7732 48.0905 71.628 47.6474 71.628L47.6579 71.6177ZM48.1327 75.0076C48.0905 75.1838 48.0272 75.2979 47.9428 75.3601C47.8584 75.4327 47.7634 75.4534 47.6579 75.4534C47.5524 75.4534 47.4575 75.4223 47.3731 75.3601C47.2887 75.2979 47.2254 75.1631 47.1726 74.9661C47.1199 74.7692 47.0882 74.4167 47.0882 73.888C47.0882 73.3593 47.1199 72.9965 47.1832 72.7788C47.2254 72.6129 47.2887 72.4885 47.3731 72.4263C47.4575 72.3537 47.5524 72.3226 47.6579 72.3226C47.7634 72.3226 47.8584 72.3537 47.9322 72.4263C48.0167 72.4885 48.08 72.6233 48.1327 72.8202C48.1855 73.0172 48.2171 73.3697 48.2171 73.8984C48.2171 74.4271 48.1855 74.7899 48.1222 75.0076L48.1327 75.0076Z" fill="#AC0B0E"/>
<path d="M50.9514 72.3334C50.6877 72.5407 50.4345 72.6755 50.2129 72.748L50.2129 73.5255C50.6455 73.3804 51.0147 73.1731 51.3313 72.8828L51.3313 76.0965L52.1964 76.0965L52.1964 71.6284L51.4895 71.6284C51.3946 71.898 51.2046 72.1364 50.9409 72.3334L50.9514 72.3334Z" fill="#AC0B0E"/>
<path d="M55.6578 73.7018C56.0903 73.4633 56.3119 73.1523 56.3119 72.7688C56.3119 72.4992 56.2064 72.2504 55.9954 72.0327C55.7316 71.7632 55.394 71.6284 54.972 71.6284C54.7293 71.6284 54.4972 71.6699 54.2968 71.7632C54.0963 71.8565 53.938 71.9809 53.8325 72.1364C53.7165 72.3023 53.6321 72.5096 53.5793 72.7791L54.3812 72.9139C54.4023 72.7273 54.4656 72.5718 54.5711 72.4681C54.6766 72.3645 54.8032 72.3126 54.9509 72.3126C55.0986 72.3126 55.2252 72.3541 55.3096 72.4474C55.4046 72.5407 55.4468 72.6547 55.4468 72.8102C55.4468 72.9865 55.3835 73.1212 55.2674 73.2353C55.1408 73.3389 54.9614 73.3908 54.7293 73.3908L54.6344 74.0854C54.7926 74.0439 54.9192 74.0232 55.0353 74.0232C55.2041 74.0232 55.3518 74.0854 55.4679 74.2098C55.5839 74.3342 55.6472 74.5 55.6472 74.7177C55.6472 74.9458 55.5839 75.122 55.4679 75.2568C55.3413 75.3916 55.1935 75.4538 55.0142 75.4538C54.8454 75.4538 54.7082 75.4019 54.5922 75.2879C54.4761 75.1739 54.4023 75.0184 54.3706 74.8007L53.5371 74.9043C53.5793 75.2775 53.7376 75.5782 54.0013 75.8166C54.2756 76.0447 54.6133 76.1587 55.0247 76.1587C55.4362 76.1587 55.816 76.0239 56.1114 75.744C56.4069 75.4641 56.544 75.1324 56.544 74.7488C56.544 74.4793 56.4702 74.2512 56.3119 74.0646C56.1536 73.878 55.9426 73.7536 55.6894 73.7018L55.6578 73.7018Z" fill="#AC0B0E"/>
<path d="M56.484 68.8365L55.4183 68.8365L55.4183 68.4218L54.3527 68.4218L54.3527 68.0071L52.0949 68.0071L52.9706 63.3836C52.9706 63.3836 53.0023 63.3214 53.0023 63.2799C53.0023 63.2384 52.9917 63.197 52.9706 63.1659L51.9156 58.5215C51.9156 58.5112 51.9156 58.5008 51.9156 58.4801L52.4536 55.3908L53.0339 55.3908L53.0339 48.8804L52.2426 48.8804L52.2426 51.3788L51.7362 49.0152C51.7362 49.0152 51.7362 48.9944 51.7362 48.9841C51.7362 48.9737 51.7362 48.9633 51.7257 48.953L52.4642 44.2672C52.4642 44.2672 52.4747 44.2361 52.4747 44.2154C52.4747 44.1946 52.4747 44.1843 52.4642 44.1635C52.4642 44.1635 52.4642 44.1532 52.4642 44.1428C52.4642 44.1324 52.4642 44.1117 52.4642 44.1013L51.5674 39.4052L52.2004 34.7816C52.2004 34.7816 52.2215 34.7194 52.2215 34.6883C52.2215 34.6468 52.2215 34.6157 52.1899 34.5846L51.3669 29.9507L51.3669 29.9299C51.3669 29.9299 51.3669 29.9299 51.3669 29.9092L51.9472 25.1819L51.9472 24.9228L49.6788 24.9228L49.4678 20.2681L49.0142 20.2681L48.8032 24.9228L46.5031 24.9228L47.1151 29.8988L46.2816 34.6572L46.2816 34.6779C46.2816 34.6986 46.2816 34.709 46.2816 34.7297L46.9252 39.4259L46.0284 44.1635C46.0284 44.1635 46.0284 44.1635 46.0284 44.1739L46.0284 44.1946C46.0284 44.2154 46.0284 44.2361 46.0284 44.2568L46.7669 48.9841L46.2605 51.3788L46.2605 48.8908L45.4692 48.8908L45.4692 55.4011L46.0389 55.4011L46.577 58.5112C46.577 58.5112 46.577 58.5215 46.577 58.5319L45.5008 63.2488C45.5008 63.2488 45.5008 63.2799 45.5008 63.2903C45.5008 63.311 45.5008 63.3214 45.5008 63.3421L46.3871 68.0279L44.1293 68.0279L44.1293 68.4425L43.0637 68.4425L43.0637 68.8572L41.9981 68.8572L41.9981 69.3237L56.5367 69.3237L56.5367 68.8572L56.484 68.8365ZM49.2041 54.2815L51.2614 58.2831L47.1467 58.2831L49.2041 54.2815ZM49.2041 44.7648L51.0926 48.7353L47.3261 48.7353L49.2041 44.7648ZM50.7445 29.6604L47.6742 29.6604L49.2041 25.7728L50.7339 29.6604L50.7445 29.6604ZM49.2041 35.2688L50.9238 39.1978L47.4949 39.1978L49.2041 35.2688ZM49.2146 63.7671L51.5463 67.9968L46.883 67.9968L49.2146 63.7671ZM49.5944 63.0415L50.2802 61.7041L51.5674 59.1954L52.4431 63.0415L49.5944 63.0415ZM49.5839 53.5144L51.388 49.7201L52.1899 53.5144L49.5839 53.5144ZM49.5628 43.9666L49.9426 43.0957L51.2087 40.2241L51.9261 43.9666L49.5733 43.9666L49.5628 43.9666ZM49.5522 34.4395L51.0082 30.7696L51.6623 34.4395L49.5628 34.4395L49.5522 34.4395ZM47.4105 30.7593L48.3811 33.2058L48.8665 34.4291L46.7669 34.4291L47.4105 30.7593ZM47.21 40.2345L47.7059 41.3645L48.8454 43.9666L46.5031 43.9666L47.2206 40.2241L47.21 40.2345ZM47.0412 49.7098L48.8348 53.5144L46.2288 53.5144L47.0307 49.7098L47.0412 49.7098ZM46.8513 59.2161L48.8137 63.0518L45.9756 63.0518L46.8513 59.2161Z" fill="#AC0B0E"/>
<path d="M61.0433 79.491C61.4864 79.491 61.8874 79.4185 62.2355 79.2733C63.3222 78.8379 63.9869 77.7494 64.6094 76.6505C65.0314 76.6816 65.464 76.7127 65.8755 76.7127C66.8461 76.7127 67.5636 76.5469 68.1122 76.1737C69.0828 75.5413 69.526 74.3491 69.9163 73.1569C71.1929 73.0222 72.459 72.8148 73.2714 72.0166C74.0943 71.208 74.2948 69.9639 74.4425 68.7096C75.6558 68.326 76.8586 67.8906 77.5022 66.9472C78.1458 66.0038 78.093 64.7494 77.9875 63.5054C79.1164 62.8938 80.2137 62.2303 80.6673 61.1729C81.1105 60.1259 80.8045 58.8922 80.4458 57.6897C81.427 56.8811 82.366 56.0206 82.5981 54.901C82.8196 53.7917 82.2921 52.6514 81.7013 51.5422C82.5031 50.5573 83.2522 49.531 83.2522 48.3699C83.2522 47.2088 82.5137 46.2033 81.7224 45.2184C82.3027 44.1092 82.8196 42.9688 82.5981 41.8492C82.366 40.7192 81.4375 39.8588 80.4563 39.0502C80.815 37.8373 81.1105 36.614 80.6779 35.5669C80.2348 34.5095 79.127 33.846 77.998 33.2344C78.1036 31.98 78.1563 30.7256 77.5233 29.7926C76.8797 28.8389 75.6769 28.4035 74.4531 28.0199C74.3054 26.7655 74.1049 25.5215 73.2925 24.7233C72.4696 23.9147 71.1929 23.7177 69.9269 23.5829C69.5365 22.3907 69.0934 21.2089 68.1333 20.5765C67.5636 20.2033 66.8461 20.0375 65.8649 20.0375C65.464 20.0375 65.042 20.0686 64.6305 20.0997C64.008 18.9904 63.3328 17.9123 62.2566 17.4769C61.8979 17.3317 61.5075 17.2592 61.0644 17.2592C60.3153 17.2592 59.5029 17.4665 58.7116 17.6946C57.8887 16.7305 57.013 15.8078 55.863 15.5797C55.6836 15.5486 55.5043 15.5279 55.3249 15.5279C54.3754 15.5279 53.3942 15.9737 52.4446 16.4609C51.4423 15.6731 50.3978 14.937 49.2162 14.937C48.0345 14.937 47.0111 15.6627 46.0088 16.4402C45.0698 15.9633 44.0991 15.5279 43.139 15.5279C42.9491 15.5279 42.7487 15.5487 42.5693 15.5798C41.4193 15.8078 40.5436 16.7201 39.7101 17.6842C38.9188 17.4561 38.117 17.2592 37.3679 17.2592C36.9142 17.2592 36.5238 17.3317 36.1757 17.4769C35.089 17.9226 34.4243 19.0008 33.8018 20.11C33.3798 20.0686 32.9472 20.0375 32.5357 20.0375C31.5651 20.0375 30.8477 20.2137 30.2885 20.5765C29.3178 21.2089 28.8747 22.3907 28.4843 23.5933C27.2183 23.7384 25.9522 23.9354 25.1293 24.7336C24.3063 25.5319 24.1059 26.7863 23.9581 28.0406C22.7343 28.4242 21.5315 28.8596 20.8879 29.803C20.2444 30.7464 20.2971 32.0008 20.4026 33.2448C19.2737 33.8564 18.1764 34.5095 17.7333 35.5773C17.2902 36.6243 17.5962 37.858 17.9549 39.0605C16.9737 39.8692 16.0347 40.7296 15.8026 41.8596C15.581 42.9688 16.1085 44.1092 16.6994 45.2184C15.8975 46.2033 15.1484 47.2296 15.1484 48.3907C15.1484 49.5517 15.887 50.5677 16.6888 51.5422C16.1085 52.6514 15.581 53.7918 15.8131 54.9217C16.0452 56.0517 16.9737 56.9122 17.9549 57.7311C17.5962 58.9337 17.3008 60.1673 17.7333 61.204C18.1764 62.2614 19.2843 62.9249 20.4132 63.5365C20.3077 64.7909 20.2549 66.0453 20.8879 66.9887C21.5315 67.9424 22.7343 68.3778 23.9581 68.7614C24.0953 70.0054 24.3063 71.2598 25.1187 72.058C25.9417 72.8667 27.2077 73.0636 28.4843 73.2088C28.8747 74.4113 29.3178 75.5931 30.2779 76.2255C30.8477 76.5987 31.5651 76.7646 32.5463 76.7646C32.9472 76.7646 33.3692 76.7335 33.7807 76.7024C34.4032 77.8116 35.0784 78.8898 36.1546 79.3252C36.5133 79.4703 36.9037 79.5429 37.3573 79.5429C38.1064 79.5429 38.9083 79.3355 39.7101 79.1075C40.5331 80.0716 41.4088 80.9942 42.5588 81.2223C42.7276 81.2534 42.9175 81.2741 43.0968 81.2741C44.0464 81.2741 45.0276 80.8284 45.9771 80.3411C46.9794 81.129 48.0239 81.865 49.2056 81.865C50.3873 81.865 51.4107 81.1394 52.413 80.3618C53.352 80.8387 54.3226 81.2741 55.2827 81.2741C55.4726 81.2741 55.6625 81.2534 55.8525 81.2223C57.0025 80.9942 57.8782 80.0819 58.7117 79.1178C59.5029 79.3459 60.3048 79.5429 61.0539 79.5429L61.0433 79.491ZM55.8524 77.6768C55.6098 77.6768 55.3777 77.6976 55.1561 77.739C54.1433 77.936 53.2148 78.6617 52.318 79.377C51.2946 78.8483 50.229 78.3092 49.2056 78.3092C48.1611 78.3092 47.106 78.8276 46.0721 79.3563C45.1753 78.6513 44.2574 77.9256 43.2551 77.739C43.0335 77.6976 42.8014 77.6768 42.5588 77.6768C41.7358 77.6768 40.8496 77.9153 39.995 78.1641C39.2564 77.2933 38.4863 76.4121 37.5367 76.0285C37.0514 75.8316 36.4816 75.7383 35.7431 75.7383C35.2578 75.7383 34.7408 75.7797 34.2344 75.8212C33.6858 74.826 33.1055 73.8204 32.2509 73.2606C31.3963 72.7008 30.2252 72.5557 29.0752 72.4313C28.727 71.3531 28.3577 70.2439 27.6297 69.5285C26.9018 68.8132 25.7834 68.4504 24.6756 68.1187C24.549 66.9887 24.4118 65.838 23.8315 64.9879C23.2618 64.1482 22.2384 63.5884 21.2361 63.0493C21.3416 61.9193 21.426 60.7582 21.0251 59.8149C20.6347 58.8819 19.7379 58.1354 18.8517 57.4098C19.1788 56.3213 19.4847 55.2016 19.2843 54.1961C19.0838 53.2008 18.3453 52.2886 17.6173 51.4074C18.1553 50.4018 18.704 49.3548 18.704 48.3492C18.704 47.3229 18.1764 46.2758 17.6384 45.2702C18.3558 44.3891 19.0943 43.4872 19.2843 42.5023C19.4847 41.4967 19.1787 40.3875 18.8517 39.299C19.7379 38.5733 20.6347 37.8165 21.0251 36.8835C21.426 35.9401 21.3311 34.7791 21.2361 33.6387C22.249 33.0996 23.2724 32.5295 23.8421 31.6897C24.4118 30.85 24.5595 29.6993 24.6861 28.5797C25.7834 28.2376 26.9123 27.8748 27.6403 27.1491C28.3683 26.4338 28.7375 25.3349 29.0752 24.2464C30.2252 24.122 31.3963 23.9872 32.2614 23.417C33.116 22.8572 33.6857 21.8517 34.2449 20.8565C34.7408 20.8979 35.2472 20.9394 35.7326 20.9394C36.4711 20.9394 37.0514 20.8461 37.5367 20.6491C38.4862 20.2655 39.2459 19.3844 39.9844 18.5136C40.8496 18.7624 41.7358 19.0008 42.5588 19.0008C42.8014 19.0008 43.0335 18.9801 43.2551 18.9386C44.2679 18.7416 45.1964 18.0159 46.0932 17.3006C47.1166 17.8293 48.1822 18.3684 49.2056 18.3684C50.2501 18.3684 51.3157 17.8501 52.3391 17.3214C53.2359 18.0263 54.1538 18.752 55.1561 18.9386C55.3777 18.9801 55.6098 19.0008 55.8524 19.0008C56.6754 19.0008 57.5616 18.7624 58.4162 18.5136C59.1548 19.3844 59.9144 20.2655 60.8745 20.6491C61.3598 20.8461 61.9296 20.9394 62.6681 20.9394C63.164 20.9394 63.6704 20.8979 64.1768 20.8564C64.7255 21.8517 65.3057 22.8572 66.1603 23.417C67.0149 23.9769 68.186 24.122 69.3255 24.2464C69.6737 25.3245 70.0429 26.4338 70.7815 27.1491C71.5095 27.8644 72.6384 28.2272 73.7356 28.559C73.8622 29.689 74.0099 30.8397 74.5797 31.6794C75.1494 32.5191 76.1728 33.0789 77.1751 33.618C77.0696 34.7479 76.9852 35.909 77.3861 36.8524C77.7765 37.7854 78.6733 38.5318 79.5595 39.2575C79.2325 40.346 78.9265 41.4656 79.127 42.4608C79.3274 43.4457 80.066 44.3683 80.7939 45.2495C80.2559 46.2551 79.7072 47.3021 79.7072 48.3181C79.7072 49.3444 80.2348 50.3914 80.7728 51.397C80.0554 52.2782 79.3274 53.1801 79.127 54.165C78.9265 55.1705 79.2325 56.2798 79.5595 57.3683C78.6733 58.094 77.7765 58.8507 77.3861 59.7838C76.9852 60.7271 77.0802 61.8882 77.1751 63.0182C76.1623 63.5573 75.1494 64.1274 74.5797 64.9672C73.9994 65.8069 73.8622 66.9576 73.7356 68.0876C72.6384 68.4297 71.5095 68.7925 70.7815 69.5182C70.0535 70.2335 69.6842 71.3324 69.3466 72.4209C68.1966 72.5453 67.0255 72.6904 66.1709 73.2502C65.3163 73.81 64.736 74.8156 64.1874 75.8108C63.6915 75.7694 63.1851 75.7279 62.6998 75.7279C61.9612 75.7279 61.3809 75.8212 60.8956 76.0182C59.9461 76.4017 59.1864 77.2829 58.4479 78.1537C57.5827 77.9049 56.707 77.6665 55.8736 77.6665L55.8524 77.6768ZM61.9401 78.5477C61.6764 78.6513 61.3915 78.7032 61.0433 78.7032C60.4947 78.7032 59.8933 78.5684 59.2603 78.4025C59.8828 77.6768 60.4947 77.0237 61.1805 76.7542C61.5708 76.5987 62.0562 76.5158 62.6787 76.5158C63.0268 76.5158 63.3855 76.5365 63.7443 76.5676C63.2273 77.4591 62.6892 78.2366 61.9296 78.5477L61.9401 78.5477ZM67.6902 75.5309C67.2681 75.8108 66.6984 75.9352 65.886 75.9352C65.6117 75.9352 65.3268 75.9145 65.0314 75.8938C65.4851 75.0955 65.9704 74.318 66.5929 73.9137C67.2154 73.499 68.1333 73.3539 69.0617 73.2502C68.7347 74.2247 68.3654 75.0851 67.6796 75.5309L67.6902 75.5309ZM72.7333 71.4568C72.1636 72.0166 71.2351 72.2135 70.2012 72.3379C70.4861 71.4568 70.8131 70.6067 71.3407 70.0884C71.8682 69.57 72.7439 69.2486 73.6407 68.9584C73.5141 69.9743 73.3136 70.897 72.7439 71.4568L72.7333 71.4568ZM76.8586 66.5014C76.4155 67.1649 75.5398 67.5277 74.548 67.8491C74.6535 66.9368 74.8118 66.0349 75.2233 65.4233C75.6347 64.822 76.4155 64.3451 77.2384 63.8994C77.3123 64.9153 77.3017 65.8483 76.8586 66.5014ZM79.9499 60.8619C79.6334 61.6083 78.8421 62.137 77.9347 62.645C77.8609 61.7223 77.8292 60.7997 78.1141 60.1155C78.399 59.4417 79.0848 58.8196 79.8022 58.2184C80.0765 59.2032 80.2664 60.1259 79.9499 60.8619ZM81.8279 54.7248C81.6696 55.5126 81.005 56.1761 80.2137 56.85C79.9604 55.9584 79.7494 55.0772 79.8971 54.3516C80.0449 53.6362 80.5618 52.9313 81.1632 52.1953C81.6274 53.1075 81.9862 53.968 81.8279 54.7351L81.8279 54.7248ZM81.3109 50.7543C80.8783 49.9249 80.4985 49.0956 80.4985 48.3492C80.4985 47.6131 80.8783 46.8045 81.332 45.9545C81.9545 46.7423 82.4715 47.5509 82.4715 48.3492C82.4715 49.1474 81.9334 49.9664 81.3109 50.7646L81.3109 50.7543ZM81.8279 41.9736C81.9861 42.7511 81.638 43.6427 81.1843 44.5238C80.5724 43.7774 80.0449 43.0621 79.8971 42.3468C79.7494 41.6108 79.9604 40.7296 80.2137 39.838C80.9838 40.4912 81.6591 41.1857 81.8173 41.9736L81.8279 41.9736ZM79.9499 35.8365C80.2559 36.5621 80.0765 37.4848 79.8022 38.4696C79.0636 37.858 78.399 37.2567 78.1141 36.5829C77.8187 35.8883 77.8503 34.976 77.9347 34.0534C78.8526 34.5613 79.6439 35.0901 79.9499 35.8365ZM76.8691 30.1866C77.3123 30.8397 77.3228 31.7727 77.249 32.7886C76.4366 32.3429 75.6453 31.866 75.2338 31.2647C74.8118 30.6531 74.6641 29.7512 74.5586 28.8285C75.5503 29.1499 76.4155 29.5127 76.8691 30.1866ZM73.6196 27.7296C72.7228 27.4497 71.8576 27.1284 71.3301 26.61C70.8026 26.0917 70.4755 25.2312 70.1801 24.3501C71.214 24.4745 72.153 24.6714 72.7228 25.2312C73.2925 25.791 73.493 26.7033 73.6196 27.7193L73.6196 27.7296ZM67.6796 21.1778C68.3548 21.6132 68.7241 22.4737 69.0512 23.4481C68.1227 23.3445 67.2154 23.189 66.5929 22.7847C65.9704 22.3804 65.4956 21.6132 65.042 20.8046C65.3268 20.7839 65.6012 20.7735 65.8649 20.7735C66.6879 20.7735 67.2681 20.9083 67.6902 21.1882L67.6796 21.1778ZM61.9401 18.1403C62.6997 18.4514 63.2378 19.2185 63.7548 20.1204C63.3855 20.1515 63.0163 20.1722 62.6681 20.1722C62.0456 20.1722 61.5708 20.0997 61.1805 19.9442C60.4947 19.6643 59.8617 19.0008 59.2603 18.2958C59.8933 18.1196 60.4947 17.9848 61.0539 17.9848C61.3915 17.9848 61.6869 18.0367 61.9507 18.1403L61.9401 18.1403ZM55.6942 16.2847C56.496 16.4402 57.1713 17.0933 57.8571 17.8708C56.9392 18.1196 56.0107 18.3166 55.3144 18.1818C54.5864 18.0367 53.8689 17.5287 53.1093 16.9378C54.0483 16.4817 54.9345 16.1396 55.6942 16.2847ZM51.6533 16.803C50.8093 17.2281 49.9652 17.6013 49.1951 17.6013C48.446 17.6013 47.623 17.2281 46.7579 16.7823C47.5597 16.1707 48.3827 15.6523 49.1951 15.6523C50.0074 15.6523 50.8409 16.1707 51.6533 16.7927L51.6533 16.803ZM42.717 16.2951C43.4872 16.1499 44.4051 16.492 45.3125 16.9274C44.5528 17.5183 43.8248 18.047 43.0968 18.1818C42.4005 18.3166 41.4615 18.1196 40.5436 17.8708C41.2083 17.114 41.9152 16.4506 42.717 16.2951ZM36.4711 18.1403C36.7349 18.0367 37.0197 17.9848 37.3679 17.9848C37.9165 17.9848 38.5179 18.1196 39.1509 18.2855C38.5284 19.0112 37.9165 19.6643 37.2307 19.9338C36.8404 20.0893 36.3656 20.1722 35.7326 20.1722C35.3949 20.1722 35.0362 20.1515 34.6669 20.1204C35.1839 19.2289 35.722 18.4514 36.4816 18.1403L36.4711 18.1403ZM30.721 21.1675C31.1431 20.8876 31.7128 20.7631 32.5252 20.7631C32.7995 20.7631 33.0844 20.7735 33.3798 20.7942C32.9261 21.5925 32.4408 22.37 31.8289 22.7743C31.2064 23.189 30.2885 23.3341 29.3495 23.4378C29.6765 22.4633 30.0458 21.6132 30.7316 21.1675L30.721 21.1675ZM25.6884 25.2312C26.2582 24.6714 27.1866 24.4745 28.2206 24.3501C27.9357 25.2312 27.6086 26.0813 27.0811 26.5997C26.5536 27.118 25.6779 27.4394 24.7916 27.7296C24.9182 26.7137 25.1187 25.791 25.6884 25.2312ZM21.5526 30.1969C22.0063 29.5335 22.8714 29.1706 23.8632 28.8492C23.7577 29.7615 23.5994 30.6531 23.188 31.2647C22.7765 31.866 21.9852 32.3429 21.1728 32.7886C21.0989 31.7727 21.1095 30.85 21.5526 30.1866L21.5526 30.1969ZM18.4613 35.8365C18.7778 35.0901 19.5691 34.5614 20.4765 34.0534C20.5503 34.976 20.582 35.8987 20.2971 36.5829C20.0122 37.2567 19.337 37.8787 18.6196 38.4696C18.3453 37.4744 18.1553 36.5621 18.4613 35.8261L18.4613 35.8365ZM16.5728 41.9736C16.731 41.1857 17.3957 40.5223 18.187 39.8484C18.4402 40.7296 18.6512 41.6211 18.5035 42.3468C18.3558 43.0621 17.8388 43.7671 17.2374 44.5135C16.7732 43.6012 16.4145 42.7408 16.5728 41.9736ZM17.1003 45.9337C17.5329 46.7631 17.9127 47.5924 17.9127 48.3492C17.9127 49.0852 17.5329 49.8938 17.0792 50.7439C16.4567 49.956 15.9397 49.1474 15.9397 48.3492C15.9397 47.5509 16.4778 46.732 17.1003 45.9441L17.1003 45.9337ZM16.5833 54.7248C16.4251 53.9369 16.7732 53.0557 17.2269 52.1642C17.8283 52.9106 18.3664 53.6259 18.5035 54.3412C18.6512 55.0772 18.4402 55.9584 18.187 56.85C17.4168 56.1969 16.7416 55.5023 16.5833 54.7144L16.5833 54.7248ZM18.4613 60.8619C18.1553 60.1362 18.3347 59.224 18.609 58.2287C19.3476 58.8404 20.0122 59.4417 20.2866 60.1155C20.5714 60.8101 20.5503 61.712 20.4765 62.645C19.5586 62.137 18.7673 61.6083 18.4613 60.8619ZM21.5421 66.5118C21.099 65.8587 21.0884 64.9257 21.1728 63.9097C21.9852 64.3555 22.7765 64.8324 23.188 65.4337C23.61 66.0453 23.7577 66.9472 23.8632 67.8699C22.8714 67.5485 21.9957 67.1753 21.5421 66.5118ZM24.7916 68.9687C25.6884 69.2486 26.5536 69.57 27.0811 70.0884C27.6086 70.6067 27.9357 71.4671 28.2311 72.3379C27.1972 72.2135 26.2582 72.0166 25.6884 71.4568C25.1187 70.897 24.9182 69.9847 24.7916 68.9687ZM30.7211 75.5206C30.0458 75.0851 29.6765 74.2247 29.3495 73.2502C30.2779 73.3539 31.1958 73.5094 31.8183 73.9137C32.4408 74.318 32.9156 75.0955 33.3798 75.8938C33.0949 75.9145 32.8206 75.9249 32.5568 75.9249C31.7339 75.9249 31.1536 75.7901 30.7316 75.5102L30.7211 75.5206ZM36.4711 78.5477C35.722 78.2366 35.1734 77.4695 34.667 76.5676C35.0362 76.5365 35.4055 76.5158 35.7537 76.5158C36.3761 76.5158 36.8509 76.5883 37.2413 76.7438C37.9271 77.0237 38.5601 77.6872 39.1615 78.3922C38.5285 78.5684 37.9271 78.6928 37.3679 78.6928C37.0197 78.6928 36.7349 78.641 36.4711 78.5373L36.4711 78.5477ZM42.717 80.4033C41.9152 80.2478 41.2399 79.5947 40.5542 78.8172C41.4721 78.5684 42.4005 78.3714 43.0968 78.5062C43.8248 78.6513 44.5423 79.1593 45.3019 79.7502C44.3629 80.2063 43.4661 80.5484 42.717 80.4033ZM46.7473 79.8953C47.5914 79.4703 48.4354 79.0971 49.1951 79.0971C49.9441 79.0971 50.7671 79.4703 51.6322 79.9161C50.8304 80.5277 50.018 81.0357 49.1951 81.0357C48.3721 81.0357 47.5492 80.5173 46.7473 79.8953ZM55.6942 80.4033C54.9346 80.5484 54.0061 80.2063 53.0988 79.7709C53.8584 79.18 54.5864 78.6513 55.3144 78.5062C56.0107 78.3714 56.9497 78.5684 57.8676 78.8172C57.2029 79.574 56.496 80.2374 55.6942 80.3929L55.6942 80.4033Z" fill="#AC0B0E"/>
<path d="M32.2245 34.323L29.4603 34.323L29.819 34.1053L29.1754 33.0894L28.6796 33.39L29.2598 34.323L26.791 34.323L26.791 34.9035L32.2245 34.9035L32.2245 34.323Z" fill="#AC0B0E"/>
<path d="M32.599 38.4199L30.4467 38.4199L31.5018 35.652L30.8687 35.6416L29.8031 38.4199L28.9169 38.4199L28.9063 38.3681L29.1596 38.2644L28.0729 35.652L27.4082 35.652L28.5898 38.4199L26.3848 38.4199L26.3848 39.0004L32.599 39.0004L32.599 38.4199Z" fill="#AC0B0E"/>
<path d="M26.1758 45.9788L26.6822 46.2587L27.5685 44.7659L27.062 44.4756L26.1758 45.9788Z" fill="#AC0B0E"/>
<path d="M29.573 43.8411L29.0645 44.1367L29.8649 45.4661L30.3734 45.1705L29.573 43.8411Z" fill="#AC0B0E"/>
<path d="M31.5286 44.2345L31.0684 44.5986L32.3322 46.1409L32.7924 45.7768L31.5286 44.2345Z" fill="#AC0B0E"/>
<path d="M31.9641 43.1256L29.7906 43.1256L29.7906 42.2133L32.4916 42.2133L32.4916 41.6224L29.7906 41.6224L29.7906 40.6064L29.1998 40.6064L29.1998 41.6224L26.3828 41.6224L26.3828 42.2133L29.1998 42.2133L29.1998 43.1256L27.0369 43.1256L27.0369 43.7061L31.9641 43.7061L31.9641 43.1256Z" fill="#AC0B0E"/>
<path d="M30.4962 46.1637L28.7975 46.1637C28.6815 46.143 28.6287 46.0704 28.6182 45.9564L28.6182 44.5361L28.0273 44.5361L28.0273 46.2985C28.0273 46.4022 28.059 46.7339 28.4388 46.7443L30.8971 46.7443L30.9182 46.7443C31.2664 46.7132 31.604 46.0704 31.6673 45.9357L31.0131 45.6557C30.9076 45.8735 30.7388 46.1223 30.4962 46.1741L30.4962 46.1637Z" fill="#AC0B0E"/>
<path d="M40.6228 46.069L40.6228 46.0483L40.6228 42.6583L42.5008 42.6583L42.5008 42.1089L40.6228 42.1089L40.6228 40.585L40.032 40.585L40.032 42.1089L36.7508 42.1089L36.7508 42.6583L39.8104 42.6583L39.7788 42.6998C39.0508 43.7779 37.9958 44.7006 36.7402 45.3537L36.7402 46.0586C37.1306 45.8824 38.6921 45.1256 39.9687 43.4877L40.0109 43.4358L40.0109 45.6543C39.9687 45.8824 39.6944 45.9964 39.4939 46.0794L39.4412 46.1105L39.7788 46.8154C39.9054 46.7532 40.5701 46.4215 40.6017 46.0794L40.6228 46.069Z" fill="#AC0B0E"/>
<path d="M61.4061 47.0738L61.9653 47.0738L61.9653 40.9678L56.2891 40.9678L56.2891 47.0738L56.8482 47.0738L56.8482 46.6902L61.4166 46.6902L61.4166 47.0738L61.4061 47.0738ZM56.8482 46.1408L56.8482 41.5172L61.4166 41.5172L61.4166 46.1408L56.8482 46.1408Z" fill="#AC0B0E"/>
<path d="M59.8556 44.4931L60.2987 45.0011L59.4336 45.0011L59.4336 43.9437L60.7524 43.9437L60.7524 43.3942L59.4336 43.3942L59.4336 42.6167L60.9001 42.6167L60.9001 42.0776L57.4079 42.0776L57.4079 42.6167L58.8744 42.6167L58.8744 43.3942L57.5556 43.3942L57.5556 43.9437L58.8744 43.9437L58.8744 45.0011L57.2813 45.0011L57.2813 45.5505L61.0161 45.5505L61.0161 45.0011L60.2882 44.1406L59.8556 44.4931Z" fill="#AC0B0E"/>
<path d="M71.8844 34.2502L70.9876 33.2861L70.5762 33.649L71.473 34.6234L71.8844 34.2502Z" fill="#AC0B0E"/>
<path d="M69.825 33.6192L69.3819 33.2979L68.5801 34.3553L69.0338 34.6766L69.825 33.6192Z" fill="#AC0B0E"/>
<path d="M67.2243 33.2045L66.75 33.4956L67.4598 34.6122L67.9341 34.3212L67.2243 33.2045Z" fill="#AC0B0E"/>
<path d="M65.7703 36.9353L66.1185 37.4433C66.224 37.3707 66.5089 37.153 66.8465 36.8109L66.8887 36.7695L66.8887 39.3923L67.4479 39.3923L67.4479 36.9457L68.0387 37.6506L68.4818 37.3189L67.8488 36.5621L68.4185 36.023L68.0281 35.6291L67.5112 36.1164L67.4795 36.1164L67.4479 36.0853L67.4584 36.0853C67.6589 35.7846 67.8382 35.484 67.9859 35.173L67.9859 35.1522C68.0914 34.9345 68.1653 34.7065 68.1864 34.6235L65.918 34.6235L65.918 35.173L67.3001 35.173L67.279 35.2144C66.7199 36.2304 65.9075 36.842 65.7598 36.9353L65.7703 36.9353Z" fill="#AC0B0E"/>
<path d="M68.2539 36.7486L68.6443 37.2358C68.6443 37.2358 68.8025 37.1322 68.9608 36.987L69.003 36.9559L69.003 39.3921L69.5622 39.3921L69.5622 39.0604L70.8599 39.0604L70.8599 39.3921L71.4191 39.3921L71.4191 36.8211L71.4613 36.8522C71.5984 36.9559 71.7567 37.0596 71.8938 37.1425L72.2737 36.6449C71.9044 36.4272 71.0287 35.8363 70.4801 34.6649C70.4801 34.6649 70.5328 34.5197 70.5539 34.4782L69.8892 34.4575C69.3406 35.9503 68.4438 36.6242 68.2645 36.7486L68.2539 36.7486ZM70.8599 38.5109L69.5622 38.5109L69.5622 37.1736L70.8599 37.1736L70.8599 38.5109ZM69.3617 36.5827C69.6466 36.251 69.9103 35.8674 70.1319 35.4424L70.153 35.4009L70.1741 35.4424C70.4379 35.8778 70.7649 36.2613 71.1237 36.5827L71.1764 36.6242L69.3301 36.6242L69.3617 36.5827Z" fill="#AC0B0E"/>
<path d="M57.1691 36.4517L56.0613 36.8456L56.0613 37.4469L57.1902 37.0322L57.1902 38.297C57.1586 38.4836 56.9898 38.6598 56.6627 38.805L56.9581 39.427C57.0847 39.3648 57.7389 39.033 57.7494 38.7116L57.7494 38.6909L57.7705 36.8249L58.5196 36.5657L58.5196 35.9644L57.76 36.2444L57.76 35.2491L58.5196 35.2491L58.5196 34.6997L57.76 34.6997L57.76 33.1758L57.2008 33.1758L57.2008 34.6997L56.0508 34.6997L56.0508 35.2491L57.2008 35.2491L57.1797 36.4621L57.1691 36.4517Z" fill="#AC0B0E"/>
<path d="M59.3709 36.1903L59.3709 36.1592L59.4236 36.1592L59.4236 36.1799C59.4553 36.2628 59.6769 37.0092 60.2571 37.8075L60.2571 37.8282L60.2571 37.8386C60.0039 38.1185 59.7613 38.3362 59.5819 38.502L59.5503 38.5228L59.5503 39.3314C59.9512 39.0722 60.3521 38.7405 60.6897 38.3673L60.7108 38.3465L60.7319 38.3673C61.1645 38.8131 61.6393 39.1552 62.1668 39.3729L62.1668 38.6679C61.7975 38.4813 61.4388 38.2118 61.1223 37.88L61.1223 37.8593L61.1223 37.8386C61.481 37.3306 61.7342 36.7812 61.8714 36.2006L61.8714 36.1488L61.8819 36.1488C61.903 36.0451 61.9663 35.817 61.9874 35.6097L61.6076 35.6097L59.3814 35.6097L59.3814 34.0651L61.1539 34.0651L61.1539 34.3657C61.1328 34.5523 60.9535 34.7285 60.6264 34.8737L60.9218 35.4957C61.0484 35.4335 61.6815 35.1121 61.7131 34.7907L61.7131 34.77L61.7131 33.5156L58.8223 33.5156L58.8223 39.3625L59.3814 39.3625L59.3814 36.1903L59.3709 36.1903ZM61.2278 36.1592L61.2278 36.1903C61.1117 36.5635 60.9324 36.9367 60.6897 37.2891L60.6686 37.3202L60.6475 37.2891C60.3415 36.8226 60.1727 36.3976 60.0989 36.1903L60.0989 36.1592L61.2383 36.1592L61.2278 36.1592Z" fill="#AC0B0E"/>
<path d="M70.9953 46.1722C70.9003 46.1722 70.7737 46.0893 70.6366 45.9856L70.5944 45.9545C70.1829 45.6332 69.8769 45.1148 69.6659 44.3995L69.6659 44.3684L71.3857 44.3684L71.3857 43.819L69.5288 43.819L69.5288 43.7982C69.4655 43.4665 69.4338 43.1866 69.4233 43L69.4233 42.9793L71.3857 42.9793L71.3857 41.0718L66.543 41.0718L66.543 46.1619L66.543 46.1826C66.5641 46.5143 67.1971 46.8253 67.3343 46.8979L67.6191 46.2966C67.4187 46.2033 67.1021 46.0167 67.1021 45.7368L67.1021 44.3684L69.0012 44.3684L69.0012 44.3892C69.265 45.3844 69.6976 46.0997 70.299 46.5143L70.299 46.5351C70.6155 46.732 70.8687 46.8357 71.0903 46.8357C71.7233 46.8357 71.8182 45.996 71.8288 45.8301L71.1641 45.8301C71.1641 45.9856 71.1325 46.1826 70.9953 46.1826L70.9953 46.1722ZM67.1021 43.819L67.1021 42.9793L68.7902 42.9793L68.7902 43C68.7902 43.1762 68.8219 43.4561 68.8746 43.7879L68.8746 43.819L67.0916 43.819L67.1021 43.819ZM67.1021 42.4298L67.1021 41.6212L70.8265 41.6212L70.8265 42.4298L67.1021 42.4298Z" fill="#AC0B0E"/>
<path d="M37.5821 36.2527L37.5821 36.2319L38.6583 36.2319L38.6583 37.7869L38.6688 37.7869L38.6688 37.818C38.6161 37.9735 38.4684 38.0876 37.9303 38.1705L38.0042 38.6888C38.5528 38.6059 39.112 38.44 39.1964 37.8077L39.2175 37.7869L39.2175 37.6522L39.2175 35.6825L37.5821 35.6825L37.5821 34.8428L39.8189 34.8428L39.8189 34.8635C39.9033 35.8172 40.0826 36.6466 40.3358 37.3619C40.0193 37.7558 39.6712 38.0876 39.3124 38.3571L39.3124 39.1346C39.7661 38.8444 40.1987 38.4608 40.6101 38.015L40.6313 37.9839L40.6524 38.015C40.9267 38.5022 41.4331 39.2176 42.0872 39.2176C42.2033 39.2176 42.3193 39.2072 42.4354 39.1761L42.4354 38.5126C42.1927 38.5852 41.6547 38.6681 41.0744 37.4448C41.4647 36.9161 41.8024 36.3252 42.0872 35.6825L41.4014 35.6825C41.2326 36.0246 41.0427 36.3667 40.8317 36.6881L40.8001 36.7399L40.8001 36.6881C40.6312 36.1594 40.5152 35.5477 40.4519 34.8842L40.4519 34.8635L42.256 34.8635L42.256 34.3141L41.5913 33.1945L40.895 33.1945L41.5702 34.3244L40.3991 34.3244L40.3991 34.3037C40.378 33.8994 40.378 33.5158 40.3886 33.1841L39.7661 33.1841C39.7661 33.3603 39.745 33.7543 39.7661 34.3037L39.7661 34.3244L36.9175 34.3244L36.9175 34.8635L36.9175 36.346C36.9175 36.9472 36.8436 38.3882 36.1367 38.9895L36.7909 39.3523C36.8964 39.2279 37.5716 38.3156 37.5716 36.2941L37.5821 36.2527Z" fill="#AC0B0E"/>
<path d="M19.0941 26.685L19.0941 26.6953L18.134 27.3899L18.2606 28.24L17.0262 30.5311L13.2807 28.5821L14.9899 25.3995L14.6312 25.2129L13.6605 25.9178L13.7872 26.7575L12.9115 28.3851L9.7252 26.7264L9.16602 27.7631L16.467 31.5574L14.6418 34.9369L15.011 35.1235L19.4634 26.8819L19.0941 26.685Z" fill="#AC0B0E"/>
<path d="M40.2168 11.1134L40.3012 11.5177L43.4875 10.8853L44.0677 13.6947L45.2283 13.4667L44.648 10.6469L46.0724 10.367L45.9879 9.95233L44.5636 10.2426L43.3925 4.64453L42.232 4.88297L43.4031 10.481L40.2168 11.1134Z" fill="#AC0B0E"/>
<path d="M42.3675 7.39174C42.779 6.44836 40.3524 6.30322 40.3524 6.30322L40.2363 6.53129C41.3336 7.14293 41.3547 7.41247 41.724 7.57834C41.9983 7.70274 42.2726 7.59907 42.357 7.39174L42.3675 7.39174Z" fill="#AC0B0E"/>
<path d="M42.7718 9.73763C43.2782 8.85645 40.8832 8.45215 40.8832 8.45215L40.7461 8.66985C41.78 9.38516 41.7589 9.6547 42.1071 9.86203C42.3709 10.0072 42.6452 9.9346 42.7612 9.73763L42.7718 9.73763Z" fill="#AC0B0E"/>
<path d="M37.5596 7.39171L37.8233 8.64609L36.1669 8.97783L36.2513 9.38214L37.6545 9.10223C37.6334 9.4547 37.4646 11.6836 36.8421 13.1142L37.1375 13.2697C37.1375 13.2697 37.8761 12.1812 38.2876 10.8853L39.0788 14.7003L40.2394 14.4722L39.2793 9.83828C39.9545 10.367 39.9862 10.5951 40.2922 10.7713C40.5559 10.9164 40.8302 10.8542 40.9463 10.6469C41.3789 9.89011 39.6802 9.4858 39.1949 9.38214L39.0788 8.82233L40.4821 8.54243L40.3977 8.13812L38.9944 8.41802L38.6885 6.92521C39.1843 6.68677 39.638 6.4276 39.9229 6.15806L38.7729 5.58789C38.7729 5.58789 37.6862 6.74897 35.8926 7.58868L35.9664 7.93079C35.9664 7.93079 36.7155 7.72345 37.5807 7.39171L37.5596 7.39171Z" fill="#AC0B0E"/>
<path d="M84.3545 25.4416C84.4705 25.3794 84.6499 25.255 84.7976 25.1409L88.2582 31.247L86.8761 31.6409L87.0976 32.0349L88.9123 32.4081L89.2605 32.2215L89.1761 31.0396L88.3848 30.6872L87.8362 29.7231C88.2265 29.8475 89.0178 30.0548 90.0729 30.1688L89.7775 28.759C89.7775 28.759 88.2582 29.1633 87.488 29.1114L86.0742 26.6234C86.0742 26.6234 86.1797 26.696 86.243 26.7063C87.3508 26.9448 87.0027 24.1872 87.0027 24.1872L86.7284 24.125C86.3274 25.4312 85.9793 25.6386 85.8949 26.074C85.8843 26.1569 85.8843 26.2295 85.8949 26.302L85.093 24.8921C85.2407 24.747 85.399 24.55 85.399 24.55L85.2513 24.2909L85.188 24.3116C84.2595 24.6122 83.8375 24.2805 83.2889 24.5811C83.0251 24.7263 82.8247 25.0684 83.004 25.3897C83.2572 25.8459 83.7636 25.7733 84.3228 25.4623L84.3545 25.4416Z" fill="#AC0B0E"/>
<path d="M87.4821 28.1981C88.5371 28.4055 88.2628 25.8034 88.2628 25.8034L87.999 25.7412C87.5981 26.9749 87.2499 27.1822 87.155 27.5969C87.0811 27.8975 87.2394 28.1463 87.4821 28.1981Z" fill="#AC0B0E"/>
<path d="M80.2555 30.6671C81.3316 32.0977 82.4078 31.5276 82.4078 31.5276L84.0009 30.6568L85.7418 33.7253L86.1005 33.5284L86.0161 32.3569L85.2353 32.0044L84.3596 30.4598L84.9083 30.1592L86.5647 30.8745L86.9234 30.6775L84.4651 26.3442L84.1064 26.5411L85.9211 29.7341L84.3385 29.1432L83.7794 29.4438L81.6692 25.7222L81.3105 25.9191L83.4206 29.6408L81.8275 30.5116C81.6587 30.6049 81.5848 30.4909 81.4477 30.2628C81.3316 30.0555 80.8358 29.0188 80.7197 28.8011L80.4137 28.967C81.0573 30.4702 80.2344 30.6671 80.2344 30.6671L80.2555 30.6671Z" fill="#AC0B0E"/>
<path d="M59.7365 9.18351L58.1856 8.81031L58.0801 9.20425L58.2595 9.24571C58.2595 10.4068 58.5232 11.3813 58.903 12.1795C57.2994 13.1333 55.8539 13.3821 55.8539 13.3821L55.7695 13.7449C57.1411 13.9004 58.3755 13.579 59.4306 13.0918C60.3801 14.4913 61.5618 15.1652 61.5618 15.1652C61.9205 14.5224 62.448 14.4913 62.5746 14.4913L62.6485 14.2114C61.6356 13.776 60.8971 13.2058 60.3485 12.6046C61.8889 11.6508 62.849 10.469 62.9123 10.3757L63.0072 9.98176L60.876 9.46342L61.2031 8.16757L63.8935 8.82068L63.9884 8.42674L63.0494 7.68033L62.2476 8.0017L61.2875 7.76326L61.7517 5.92834L60.6017 5.64844L60.1375 7.48336L58.5865 7.11016L58.4916 7.50409L60.0425 7.8773L59.7154 9.17315L59.7365 9.18351ZM59.6416 11.7026C58.9558 10.6038 58.8081 9.60855 58.787 9.38048L61.3824 10.0129C60.8549 10.7074 60.2535 11.2569 59.6416 11.7026Z" fill="#AC0B0E"/>
<path d="M54.1502 13.3624L54.4562 13.435L55.6062 13.7149L56.6507 9.55783C57.1783 9.42306 57.5792 9.29866 57.8113 9.22609L57.9168 8.80105C57.5475 8.85288 57.1677 8.89435 56.809 8.92545L57.2416 7.20456L58.2544 7.45337L58.3494 7.05943L57.3365 6.81063L57.8007 4.9757L56.6507 4.6958L56.1865 6.53072L54.8571 6.20935L54.7622 6.60329L56.0915 6.92466L55.5746 8.99802C54.5828 9.02912 53.8759 8.99802 53.8759 8.99802L53.9603 10.0969C54.4668 10.0243 54.931 9.9414 55.3636 9.85846L54.8255 12.0044L54.8466 11.9215C54.7622 12.2532 54.7094 12.3569 54.0658 12.2117C53.7704 12.1392 53.5067 12.0459 53.5067 12.0459L53.4434 12.2947C54.2452 12.6575 54.1608 13.3624 54.1608 13.3624L54.1502 13.3624Z" fill="#AC0B0E"/>
<path d="M21.636 15.5321C21.6782 14.5161 19.357 15.2107 19.357 15.2107L19.3359 15.4699C20.5809 15.6565 20.697 15.9053 21.0979 15.926C21.3933 15.9364 21.6149 15.7602 21.6254 15.5217L21.636 15.5321Z" fill="#AC0B0E"/>
<path d="M20.0035 17.26L19.9824 17.5192C21.2274 17.7058 21.3434 17.9546 21.7444 17.9857C22.0398 17.9961 22.2613 17.8095 22.2719 17.5814C22.3141 16.5655 20.0035 17.26 20.0035 17.26Z" fill="#AC0B0E"/>
<path d="M30.6331 15.7476L30.3694 15.4262L29.7152 15.9342L28.6074 14.545L29.2616 14.0371L28.9978 13.7157L28.3437 14.2237L26.9721 12.5131L26.2757 13.0626L23.4693 15.2292C23.4693 14.939 23.4482 14.628 23.4165 14.2962L27.1514 11.4039L26.8877 11.0825L25.7166 11.3417L25.4845 12.1607L25.495 12.1607L23.3532 13.8194C23.3005 13.4565 23.2161 13.0729 23.1 12.6997L21.8867 13.2284C21.8867 13.2284 22.9101 15.0012 23.0262 16.9398L23.3532 16.9398C23.3532 16.9398 23.3954 16.7013 23.4271 16.297L24.2817 17.3648L23.5432 17.935L23.7964 18.2563L24.5349 17.6758L25.6427 19.0649L25.8959 19.3863L26.0331 19.5522L26.9615 18.8369L26.8244 18.671L29.0189 16.9709C29.2616 17.2819 29.3565 17.5307 28.9661 17.8209C28.4597 18.2149 27.584 18.8887 27.584 18.8887L27.7528 19.0857C27.7528 19.0857 28.9767 18.2874 29.4198 18.8369C29.4198 18.8369 31.0024 17.5825 29.9473 16.2452L30.612 15.7268L30.6331 15.7476ZM24.0918 15.2603L26.2968 13.5602L27.4152 14.9493L26.9299 15.3225C26.9299 15.3225 26.9299 15.3018 26.9299 15.2914C26.9721 14.2755 24.651 14.9804 24.651 14.9804L24.6299 15.2292C25.8748 15.4158 25.9909 15.6646 26.3918 15.6957C26.4129 15.6957 26.434 15.6957 26.4446 15.6957L25.189 16.6702L24.0707 15.2811L24.0918 15.2603ZM28.312 17.0227C28.312 17.0227 28.312 17.0227 28.312 17.002C28.3542 15.9964 26.0331 16.691 26.0331 16.691L26.012 16.9398C27.2569 17.1264 27.373 17.3752 27.7845 17.4063C27.795 17.4063 27.8056 17.4063 27.8161 17.4063L26.5712 18.3704L25.4634 16.9812L27.6684 15.2811L28.7657 16.6495C28.7657 16.6495 28.7657 16.6599 28.7762 16.6702L28.3015 17.0331L28.312 17.0227Z" fill="#AC0B0E"/>
<path d="M22.081 19.926L22.3131 20.2162C22.3131 20.2162 23.2099 19.8016 24.4443 21.3255C24.8452 21.8231 25.1406 22.1756 25.1406 22.1756L25.7525 21.6987C25.7525 21.6987 24.3071 19.843 23.8429 19.2107C23.4103 18.6197 22.3025 15.2816 22.1337 14.7529L21.8066 15.0121C22.0704 15.8725 22.8828 18.4953 22.83 19.0862C22.7878 19.6461 22.081 19.9156 22.081 19.9156L22.081 19.926Z" fill="#AC0B0E"/>
<path d="M78.4824 18.349L77.9549 17.2916L77.0897 17.2605L75.2328 15.8091C76.2562 14.8865 76.9209 13.9742 77.1108 13.715L76.0136 12.8546C75.4228 13.7358 74.8214 14.4407 74.22 15.0213L71.2764 12.7095L71.0126 13.0308L73.9035 15.3012C71.2975 17.6026 68.7759 17.4471 67.6048 17.1983L67.2988 17.5715C70.3901 18.9503 73.0594 17.6233 74.8425 16.1409C72.4897 19.4064 73.8191 22.672 73.8191 22.672C74.6526 22.1329 75.3067 22.8378 75.3067 22.8378L75.5177 22.5683C73.8296 19.9351 75.0957 16.68 75.2328 16.3378L78.2186 18.6807L78.4824 18.3594L78.4824 18.349Z" fill="#AC0B0E"/>
</svg>
