<svg width="90" height="67" viewBox="0 0 90 67" fill="none" xmlns="http://www.w3.org/2000/svg">
<path d="M77.286 42.195C77.286 41.038 77.303 39.8844 77.2758 38.7375C77.269 38.2388 77.3776 37.9877 77.934 38.0318C78.4667 38.0759 79.0062 38.0759 79.5356 38.0318C80.0479 37.9979 80.1531 38.2218 80.1531 38.6866C80.1361 41.0244 80.1802 43.3588 80.1361 45.6897C80.0852 48.5262 78.1139 50.674 75.4165 50.9319C72.4782 51.2067 70.1743 49.6629 69.5161 46.9553C69.3702 46.3615 69.2854 45.7474 69.2752 45.1367C69.248 43.0398 69.2752 40.9531 69.248 38.8597C69.248 38.2727 69.3431 38.0148 70.0183 38.0216C72.1253 38.0488 72.1253 38.0216 72.1253 40.1524V45.3878C72.1253 46.1546 72.3221 46.8705 72.7937 47.4846C73.435 48.3125 74.5072 48.6145 75.5352 48.3023C76.4174 48.0343 77.2046 46.9824 77.2385 45.8967C77.2826 44.665 77.2453 43.43 77.2453 42.1984H77.2792L77.286 42.195Z" fill="#0B2847"/>
<path d="M20.45 31.7378C20.9793 32.0228 21.5018 32.3078 22.0345 32.5928C17.2979 40.9056 12.5715 49.2184 7.82812 57.5142C7.58722 57.9383 7.69239 58.1351 7.94687 58.471C10.0539 61.1718 8.99873 64.8532 5.86702 65.8168C3.42747 66.5768 0.821645 65.1348 0.156623 62.6613C-0.518578 60.1505 1.05577 57.6092 3.60049 57.029C4.20784 56.8899 4.79144 56.822 5.39879 57.029C5.7313 57.1308 5.99932 57.0731 6.23004 56.6659C10.1421 49.7409 14.0916 42.8328 18.0308 35.9281C18.8281 34.5234 19.6493 33.1357 20.4534 31.7378H20.45Z" fill="#79B5AE"/>
<path d="M33.146 19.0078C32.7524 18.5327 32.3487 18.0679 31.9551 17.5929C35.9791 14.1355 40.0032 10.6611 44.0476 7.22058C44.4344 6.89147 44.4243 6.61664 44.2716 6.18573C43.3555 3.69529 44.6143 1.05556 47.0878 0.227677C49.5035 -0.573064 52.0551 0.804481 52.8083 3.32206C53.2969 4.96087 52.6793 7.01361 51.3798 8.05525C49.8971 9.24619 47.8953 9.45994 46.3108 8.52009C45.8222 8.23508 45.5406 8.27919 45.1368 8.63206C42.7821 10.6848 40.4002 12.7036 38.0387 14.736C36.4033 16.1509 34.7746 17.5725 33.1494 18.9942V19.0044L33.146 19.0078Z" fill="#C7191E"/>
<path d="M30.4528 37.8321C31.7795 37.8151 33.1604 38.263 34.443 39.1011C34.8637 39.3759 34.8297 39.5829 34.5888 39.9188C34.2461 40.3938 34.0053 41.0385 33.5438 41.3065C33.0552 41.5915 32.6549 40.8824 32.1561 40.7195C31.447 40.4786 30.7514 40.2377 29.988 40.2717C29.3196 40.2988 28.7631 40.5058 28.6003 41.2217C28.4103 42.0224 28.9158 42.4194 29.5774 42.6366C30.3815 42.8944 31.223 43.0675 32.017 43.3525C33.3945 43.8445 34.6804 44.4382 35.013 46.1279C35.4506 48.3198 34.3785 50.1995 32.2138 50.7152C29.7233 51.309 27.4941 50.6983 25.516 49.0594C25.1394 48.7507 25.1903 48.5234 25.4482 48.2316C25.4991 48.1705 25.5432 48.1026 25.6009 48.0416C25.9707 47.6174 26.2693 46.9897 26.724 46.8337C27.2193 46.6708 27.6061 47.3596 28.0845 47.6276C29.0515 48.1535 30.0117 48.6116 31.1687 48.3503C31.7591 48.2112 32.1527 47.8923 32.2205 47.3053C32.2884 46.7115 31.9288 46.2806 31.3825 46.0804C30.7141 45.8395 30.0219 45.6563 29.3433 45.4324C28.7428 45.2356 28.1286 45.0456 27.5552 44.7673C25.5262 43.7936 24.9698 40.879 26.4491 39.1791C27.2193 38.3003 28.624 37.7914 30.4494 37.8253L30.4528 37.8321Z" fill="#0B2847"/>
<path d="M51.0501 42.178C52.1121 41.2042 53.0553 40.7801 54.175 40.8683C56.377 41.0413 57.4798 42.7039 57.5578 44.6379C57.6358 46.4837 57.5578 48.3362 57.5815 50.1922C57.5815 50.6672 57.4119 50.769 56.9742 50.7792C54.8502 50.847 54.8502 50.8572 54.8502 48.7536C54.8502 47.4948 54.8841 46.2258 54.84 44.967C54.7959 43.6573 54.1716 43.0025 53.1028 43.0262C52.0307 43.0534 51.1926 43.9152 51.1756 45.0688C51.1586 46.7076 51.1417 48.3464 51.1858 49.975C51.2028 50.6129 51.006 50.7859 50.3817 50.7758C48.4477 50.7486 48.4477 50.7758 48.4477 48.8689C48.4477 46.4803 48.4646 44.0916 48.4375 41.703C48.4375 41.1601 48.5664 40.9022 49.1466 40.9599C49.4893 40.9938 49.8388 40.9871 50.1815 40.9599C50.8329 40.9158 51.4301 40.9158 51.0535 42.1576L51.0433 42.1746L51.0501 42.178Z" fill="#0B2847"/>
<path d="M86.3442 50.9458C84.6748 50.9186 83.3889 50.4809 82.1912 49.7379C81.7704 49.48 81.7976 49.2629 82.0554 48.9439C82.0724 48.927 82.0894 48.8998 82.1063 48.8828C82.8426 47.7971 82.8528 47.7869 84.0234 48.3739C84.8105 48.7709 85.6249 48.8998 86.4901 48.8387C86.8837 48.8116 87.1585 48.6216 87.2942 48.2789C87.4469 47.8989 87.1313 47.6851 86.8836 47.4951C86.507 47.1932 86.0354 47.0642 85.5909 46.9014C85.0175 46.6842 84.4339 46.4976 83.8944 46.2126C83.0021 45.7477 82.3778 45.0827 82.371 43.963C82.3642 42.7823 82.9274 41.9714 83.8877 41.4285C85.557 40.4785 87.7319 40.7804 89.3435 41.7814C89.5912 41.9374 89.6421 42.1342 89.4793 42.3921C89.4623 42.4192 89.4521 42.4362 89.4351 42.46C89.2112 42.8569 89.0755 43.3659 88.7498 43.617C88.329 43.9257 87.9864 43.3489 87.5758 43.2302C86.9244 43.0334 86.2831 42.9621 85.6147 43.0334C85.2991 43.0673 85.0413 43.1793 84.9632 43.5152C84.8682 43.885 85.0582 44.17 85.3738 44.2922C86.1609 44.6009 86.9854 44.835 87.7624 45.154C88.6005 45.5001 89.4487 45.8529 89.7405 46.8606C90.1952 48.4316 89.4657 49.972 87.9524 50.6031C87.362 50.8542 86.7377 51.0001 86.3408 50.956V50.9458H86.3442Z" fill="#0B2847"/>
<path d="M59.2211 49.4119C59.2822 49.3169 59.3161 49.2491 59.367 49.188C59.6656 48.7469 59.8793 48.1531 60.3001 47.9122C60.7785 47.6374 61.1721 48.299 61.6369 48.4823C62.3732 48.7571 63.1094 48.886 63.8966 48.8453C64.3072 48.8182 64.6329 48.6553 64.7448 48.2515C64.8466 47.8817 64.5549 47.6645 64.3004 47.4745C63.6659 47.0165 62.8889 46.8876 62.1764 46.6026C61.2773 46.2395 60.4052 45.8256 60.0015 44.862C59.3059 43.1892 60.5579 41.2926 62.5632 40.9567C63.9679 40.7225 65.2945 40.9465 66.5533 41.6454C66.991 41.8863 67.1539 42.1374 66.8451 42.5751C66.801 42.643 66.7603 42.7142 66.7264 42.7821C66.1971 43.7559 66.1869 43.766 65.2267 43.3249C64.5515 43.0162 63.8559 42.9551 63.1298 43.0162C62.7769 43.0433 62.4953 43.1621 62.4003 43.5149C62.2985 43.9289 62.5462 44.18 62.8957 44.3157C63.8559 44.6855 64.8636 44.9705 65.7831 45.4184C67.7443 46.3854 67.8732 48.8758 66.0986 50.1855C65.0536 50.9625 63.8729 51.0304 62.6717 50.8913C61.379 50.7454 60.3781 50.2534 59.2109 49.4085H59.2177L59.2211 49.4119Z" fill="#0B2847"/>
<path d="M4.98468 14C7.76691 13.9321 9.73826 15.5607 9.85023 18.0681C9.87737 18.645 10.064 18.8859 10.6306 19.025C12.6358 19.5237 14.6207 20.0666 16.5988 20.6536C17.1111 20.7995 17.3351 20.7214 17.5828 20.2498C19.4489 16.6635 22.4551 14.9805 26.4283 15.1604C28.5353 15.2554 30.3505 16.2224 31.9418 17.5931C32.6781 17.773 33.0819 18.2412 33.1328 19.008H33.1497C34.2185 20.6909 34.741 22.4994 34.7241 24.525C34.6901 28.3455 31.9927 31.9657 28.0874 33.0379C26.0075 33.6079 24.0023 33.401 22.0343 32.5901C21.3083 32.6851 20.7925 32.3831 20.4499 31.735C19.1639 30.673 18.0782 29.4414 17.3996 27.8806C16.799 26.4759 16.5852 25.0102 16.7413 23.4901C16.8024 22.8421 16.6735 22.5163 15.927 22.3433C13.9659 21.8954 12.0387 21.3254 10.1114 20.7554C9.61608 20.6095 9.38538 20.6943 9.07662 21.1184C7.82801 22.8353 5.85668 23.446 3.92947 22.7912C2.03619 22.1431 0.855454 20.3923 0.889384 18.2649C0.923314 16.1002 2.89461 14.0475 4.98128 13.9966L4.98468 14ZM25.6988 16.9553C21.4101 16.9722 18.4548 20.4568 18.5057 24.2162V24.3892C18.5328 28.2097 21.5254 31.5348 25.7157 31.5281C29.8789 31.5179 32.729 28.3115 32.919 24.5962C33.1328 20.4127 29.8959 16.9383 25.6988 16.9553Z" fill="#0B2847"/>
<path d="M40.9722 40.9018C43.7476 40.5218 45.7665 42.0995 46.2822 43.8503C46.5231 44.6884 46.5468 45.5332 46.5468 46.395C46.5468 46.809 46.35 46.8768 45.9972 46.8768C44.9861 46.8666 43.9682 46.8768 42.9571 46.8768L42.9503 46.8938H40.0731C39.883 46.8938 39.6184 46.7716 39.5166 47.0499C39.4318 47.2738 39.5947 47.4638 39.7032 47.6368C40.3377 48.6106 41.9053 48.9465 43.1708 48.4206C43.5746 48.2578 43.8902 47.7047 44.2939 47.8676C44.6705 48.0236 44.8775 48.5563 45.227 48.8346C45.7834 49.2824 45.5866 49.5166 45.1082 49.8592C42.8824 51.4879 39.8084 51.2741 37.9389 49.2383C36.5274 47.7047 36.4494 45.8318 37.0669 43.9792C37.6742 42.1504 39.0721 41.1597 40.9722 40.9018ZM41.5829 43.1174C40.6498 43.1954 39.7507 43.8401 39.5438 44.5391C39.442 44.8919 39.5878 44.9598 39.8864 44.9598H41.5558C42.0851 44.9598 42.6178 44.9157 43.1471 44.97C43.8325 45.031 43.7476 44.668 43.5848 44.2541C43.293 43.5212 42.4549 43.0462 41.5796 43.1174H41.5829Z" fill="#0B2847"/>
</svg>
