<svg width="354" height="102" viewBox="0 0 354 102" fill="none" xmlns="http://www.w3.org/2000/svg">
<path d="M89.9232 50.4167C89.9232 71.4175 72.7582 88.4659 51.5968 88.4659C30.4353 88.4659 13.2704 71.4372 13.2704 50.4167C13.2704 29.3962 30.4353 12.3674 51.5968 12.3674C72.7582 12.3674 89.9232 30.2221 89.9232 50.4167Z" fill="#0D2949"/>
<path d="M99.4843 50.3626C97.506 50.5985 95.5078 50.7165 93.5295 50.6575C93.5295 50.6968 93.5295 50.7165 93.5295 50.7558C93.5295 73.723 74.766 92.3445 51.6263 92.3445C28.4866 92.3445 9.72301 73.723 9.72301 50.7558C9.723 27.7886 28.3866 9.26542 51.4664 9.1671C51.4264 7.57434 51.5064 5.98156 51.7461 4.40846C52.4056 0.161103 50.6471 -0.192827 47.0503 0.0628012C20.1339 1.97018 -0.927654 25.4487 0.0315074 52.7026C0.990668 79.8188 23.8306 101.468 51.5463 101.508C78.7025 101.547 101.423 80.6446 103.201 54.079C103.401 51.1098 102.801 49.9496 99.5043 50.3429L99.4843 50.3626Z" fill="#0D2949"/>
<path d="M46.4664 14.3167C47.1058 14.3363 47.8052 14.3953 48.3447 14.7493C48.5246 14.8673 48.6644 15.0049 48.7843 15.1622C49.3039 15.8111 49.4038 16.7746 49.164 17.5808C48.8643 18.5837 48.1449 19.4096 47.4255 20.1765C46.7861 20.845 46.0467 21.5529 45.1275 21.6512C44.3882 21.7299 43.7288 21.4546 43.0294 21.3366C42.33 21.199 41.6106 21.1793 40.9112 21.2579C39.5524 21.4153 38.2336 21.9462 37.1945 22.8114C35.3161 24.3845 34.3969 26.9998 34.8565 29.3988C35.3361 31.7977 37.1945 33.8624 39.5324 34.6293C41.8704 35.3765 44.608 34.7866 46.4064 33.1152C48.2048 31.4437 49.0041 28.7892 48.4047 26.4295C48.2248 25.7413 47.9251 24.9941 48.0849 24.2862C48.2248 23.6569 48.7244 23.1653 49.164 22.7327C50.303 21.5922 51.442 20.4321 52.581 19.2916C53.4802 18.3674 54.4594 17.4235 55.6783 17.0303C56.9172 16.637 58.256 16.8729 59.5149 17.2072C60.9936 17.5808 62.7521 18.3674 63.3915 19.8422C63.8111 20.786 63.6713 21.9265 63.2317 22.8704C62.792 23.8143 62.0727 24.6008 61.3333 25.3284C58.9954 27.629 56.7973 30.0476 54.4594 32.3483C52.0215 34.7473 49.5636 37.1265 47.1058 39.5059C46.7661 39.8401 46.4064 40.1745 45.9468 40.3318C45.2275 40.5677 44.4681 40.2531 43.7288 40.0761C40.7913 39.3486 37.4543 40.784 35.9756 43.3993C34.4969 46.0146 35.0364 49.5934 37.1945 51.6974C39.3726 53.7817 42.9694 54.2143 45.5871 52.6806C48.1849 51.1468 49.5437 47.7843 48.7244 44.8938C48.5246 44.2252 48.2448 43.5173 48.4646 42.8487C48.6045 42.4358 48.9242 42.1015 49.2239 41.8065C55.0788 36.0057 60.9137 30.1853 66.7686 24.3845C67.408 23.7552 68.0474 23.126 68.8667 22.7721C69.9458 22.3198 71.0648 22.4771 72.0439 22.9687C72.7633 23.3423 73.4227 23.8929 73.9223 24.5221C74.5018 25.2497 75.2611 25.8003 75.9805 26.3902C76.5 26.8032 76.9996 27.2947 77.5991 27.6094C78.2785 27.9633 79.2576 27.6684 79.997 27.806C80.3367 27.8847 80.7163 28.0026 80.8162 28.3762C81.056 29.2218 79.1377 30.5589 78.6182 31.0898C76.0204 33.6658 73.4027 36.2417 70.805 38.8176C69.5661 40.0368 68.3672 41.3542 67.0683 42.5144C65.9892 43.4583 65.07 42.9863 63.8311 42.7111C62.6122 42.4358 61.3133 42.4948 60.1144 42.8684C56.1379 44.1465 54.2595 48.9051 56.1179 52.5822C56.2178 52.7592 56.3177 52.9362 56.4176 53.1132C57.7964 55.3155 60.514 56.5937 63.1118 56.2987C67.2481 55.8071 70.0457 51.6384 69.0066 47.6663C68.9267 47.3713 68.8268 47.0961 68.7268 46.8208C68.567 46.4471 68.3871 46.0539 68.507 45.6803C68.587 45.4443 68.7468 45.2673 68.9267 45.0903C71.5044 42.4751 74.1221 39.8991 76.7398 37.3035C77.5191 36.517 78.3184 35.7304 79.2976 35.1995C80.2767 34.6686 81.4557 34.4326 82.4948 34.8259C83.314 35.1405 83.9535 35.7895 84.3931 36.5367C84.8327 37.2839 85.0925 38.1294 85.3123 38.9553C85.652 40.1548 85.9318 41.4329 85.5321 42.5931C85.2124 43.4779 84.513 44.1858 83.8336 44.8544C80.1768 48.4922 76.5 52.13 72.8432 55.7678C70.3055 58.2848 67.7677 60.8214 65.2499 63.358C64.8303 63.7709 64.3707 64.2035 63.7712 64.3215C63.1517 64.4395 62.5523 64.1052 61.9928 63.8889C61.4133 63.6529 60.7938 63.5743 60.1743 63.5939C58.8355 63.6333 57.4367 64.0462 56.3177 64.7738C53.0206 66.9171 52.3812 71.6364 54.6991 74.7236C54.899 74.9792 55.1188 75.2349 55.3586 75.4708C57.6166 77.6535 61.4532 78.0074 64.0909 76.277C66.7286 74.527 67.8676 70.8892 66.6886 67.9593C66.5487 67.625 66.3889 67.2907 66.4289 66.9565C66.4688 66.5239 66.8085 66.1699 67.1282 65.8552C70.7651 62.2568 74.4019 58.6583 78.0587 55.0599C78.9379 54.1947 79.8171 53.3294 80.6764 52.4642C81.4757 51.6384 82.215 50.6552 83.2341 50.0849C84.0134 49.6523 84.9726 49.5737 85.8518 49.7507C86.6711 49.908 87.4704 50.1636 88.0299 50.7929C88.4296 51.2451 88.6494 51.835 88.8492 52.4052C89.069 53.0541 89.2688 53.7031 89.4087 54.352C89.4886 54.6863 89.5486 55.0206 89.5885 55.3745C89.6085 55.5515 89.5885 55.8464 89.6285 56.0628C89.7084 55.5908 89.7684 55.0992 89.8083 54.6076C89.8283 54.3716 89.8483 54.116 89.8683 53.88C89.9083 53.5261 89.9282 53.1721 89.9482 52.7985C89.9482 52.6019 89.9682 52.3856 89.9882 52.189C90.0082 51.6187 90.0282 51.0485 90.0282 50.4782C90.0282 29.4774 74.0401 12.2231 52.8786 12.2231C51.3897 12.2231 49.5057 11.9959 48.1126 12.1056C47.9327 12.1056 47.6026 12.3027 47.4228 12.3223C43.0859 12.8344 39.6244 13.9781 35.7686 15.7488C39.2856 14.7656 42.8895 14.2184 46.5263 14.3363L46.4664 14.3167Z" fill="#F4C11D"/>
<path d="M327.361 5.43237L333.814 6.67551C333.064 9.95109 332.156 13.1477 331.091 16.2655C330.025 19.3437 328.802 22.2246 327.421 24.9083C326.039 27.5524 324.54 29.8808 322.922 31.8935C322.566 31.4989 322.053 31.0648 321.382 30.5912C320.711 30.0781 320.021 29.5848 319.31 29.1113C318.64 28.5982 318.067 28.1838 317.594 27.8681C319.172 26.1317 320.573 24.0795 321.797 21.7116C323.06 19.3437 324.145 16.7785 325.053 14.016C326 11.214 326.769 8.35277 327.361 5.43237ZM347.252 14.6671H354C354 14.6671 353.98 14.8842 353.941 15.3183C353.941 15.713 353.941 16.1668 353.941 16.6798C353.941 17.1929 353.921 17.5875 353.882 17.8638C353.605 24.5333 353.309 30.1965 352.994 34.8534C352.717 39.5102 352.402 43.3581 352.047 46.3968C351.731 49.3962 351.356 51.764 350.922 53.5005C350.488 55.1975 349.994 56.4209 349.442 57.1707C348.731 58.1574 348.021 58.8677 347.311 59.3018C346.6 59.7359 345.752 60.0517 344.765 60.249C343.937 60.4068 342.93 60.4858 341.746 60.4858C340.562 60.5252 339.319 60.5055 338.017 60.4266C337.938 59.4005 337.721 58.2363 337.366 56.9339C337.05 55.6316 336.616 54.4871 336.063 53.5005C337.168 53.6189 338.194 53.6978 339.142 53.7373C340.089 53.7373 340.839 53.7373 341.391 53.7373C341.865 53.7373 342.24 53.6584 342.516 53.5005C342.832 53.3426 343.167 53.0467 343.522 52.6125C343.917 52.139 344.292 51.1524 344.647 49.6527C345.002 48.1136 345.338 45.9233 345.653 43.0818C345.969 40.2403 346.245 36.6293 346.482 32.2487C346.758 27.8286 347.015 22.4812 347.252 16.2063V14.6671ZM329.137 14.6671H350.271V21.238H325.941L329.137 14.6671ZM333.34 16.7982L338.49 19.3437C337.701 22.7377 336.616 26.2106 335.235 29.7624C333.853 33.2748 332.235 36.5701 330.38 39.6484C328.565 42.7266 326.592 45.2721 324.461 47.2848C323.79 46.6534 322.941 45.9627 321.915 45.2129C320.889 44.4236 319.902 43.7922 318.955 43.3186C320.692 41.9768 322.31 40.3193 323.809 38.346C325.309 36.3333 326.671 34.143 327.894 31.7751C329.117 29.3678 330.183 26.9012 331.091 24.3755C331.998 21.8103 332.748 19.2845 333.34 16.7982ZM341.569 17.5086L347.074 20.0541C346.324 23.8822 345.377 27.7103 344.233 31.5383C343.127 35.3664 341.786 39.0367 340.207 42.549C338.668 46.0614 336.892 49.2975 334.879 52.2574C332.867 55.1778 330.617 57.6443 328.131 59.657C327.46 58.9861 326.572 58.256 325.467 57.4667C324.401 56.6774 323.375 56.0263 322.389 55.5132C324.954 53.6584 327.263 51.3694 329.315 48.6463C331.406 45.8838 333.242 42.8253 334.82 39.4708C336.399 36.0768 337.741 32.525 338.846 28.8153C339.951 25.0661 340.858 21.2972 341.569 17.5086ZM298.414 37.754C300.348 37.2805 302.538 36.728 304.985 36.0965C307.471 35.4651 310.076 34.7745 312.799 34.0246C315.561 33.2353 318.304 32.4658 321.027 31.7159L321.915 37.9316C318.205 39.1156 314.417 40.2995 310.549 41.4835C306.721 42.6279 303.248 43.654 300.131 44.5617L298.414 37.754ZM309.01 5.49157H315.522V61.0777H309.01V5.49157ZM301.196 8.86581L307.175 9.81297C306.899 12.4176 306.563 15.0421 306.169 17.6862C305.774 20.2909 305.3 22.7574 304.748 25.0858C304.195 27.4143 303.564 29.4664 302.854 31.2424C302.498 30.9661 302.005 30.6306 301.374 30.236C300.742 29.8019 300.111 29.3875 299.479 28.9929C298.848 28.5587 298.295 28.243 297.822 28.0457C298.453 26.4276 298.986 24.5925 299.42 22.5404C299.894 20.4487 300.269 18.2387 300.545 15.9103C300.861 13.5424 301.078 11.1942 301.196 8.86581ZM302.854 16.9166H320.494V23.6651H301.492L302.854 16.9166Z" fill="#0D2949"/>
<path d="M249.619 16.2063H290.821V23.1323H249.619V16.2063ZM247.133 33.6102H288.512V40.4771H247.133V33.6102ZM240.326 52.435H293.84V59.361H240.326V52.435ZM263.294 5.43237H270.753V55.8092H263.294V5.43237ZM249.619 6.20194L256.96 7.85946C256.131 10.8982 255.105 13.8976 253.882 16.8574C252.658 19.8173 251.336 22.5798 249.915 25.145C248.495 27.6708 247.015 29.8808 245.476 31.7751C245.002 31.341 244.371 30.8674 243.581 30.3544C242.832 29.8019 242.042 29.2691 241.213 28.7561C240.385 28.243 239.674 27.8286 239.082 27.5129C240.661 25.8554 242.101 23.8822 243.404 21.5932C244.746 19.3042 245.93 16.8377 246.956 14.1936C248.021 11.5494 248.909 8.88554 249.619 6.20194Z" fill="#0D2949"/>
<path d="M202.72 31.7751H210.297V60.9594H202.72V31.7751ZM195.557 12.4176H206.567V18.515H195.557V12.4176ZM180.461 36.4517H233.502V43.141H180.461V36.4517ZM208.994 5.43237H216.157V23.3691C216.157 24.4347 216.315 25.1056 216.631 25.3818C216.986 25.6186 217.736 25.737 218.88 25.737C219.157 25.737 219.591 25.737 220.183 25.737C220.775 25.737 221.426 25.737 222.136 25.737C222.886 25.737 223.577 25.737 224.208 25.737C224.879 25.737 225.372 25.737 225.688 25.737C226.359 25.737 226.852 25.5989 227.168 25.3226C227.523 25.0069 227.78 24.4347 227.938 23.6059C228.135 22.7377 228.273 21.4748 228.352 19.8173C229.062 20.3303 230.049 20.8434 231.312 21.3564C232.575 21.83 233.68 22.1654 234.627 22.3628C234.39 24.8491 233.976 26.8026 233.384 28.2233C232.792 29.644 231.924 30.6306 230.779 31.1832C229.674 31.7357 228.194 32.0119 226.339 32.0119C226.063 32.0119 225.629 32.0119 225.037 32.0119C224.445 32.0119 223.794 32.0119 223.083 32.0119C222.413 32.0119 221.722 32.0119 221.012 32.0119C220.341 32.0119 219.709 32.0119 219.117 32.0119C218.565 32.0119 218.15 32.0119 217.874 32.0119C215.506 32.0119 213.671 31.7554 212.369 31.2424C211.106 30.7293 210.218 29.8611 209.705 28.6377C209.231 27.3748 208.994 25.6384 208.994 23.4283V5.43237ZM179.218 27.0394C181.626 26.8026 184.349 26.5263 187.387 26.2106C190.466 25.8949 193.682 25.5594 197.037 25.2042C200.431 24.8096 203.765 24.4149 207.041 24.0203L207.219 30.2952C204.022 30.7293 200.766 31.1634 197.451 31.5975C194.175 31.9922 191.018 32.3671 187.979 32.7223C184.98 33.0775 182.257 33.4129 179.81 33.7286L179.218 27.0394ZM227.938 9.39858L233.147 14.7263C231.253 15.5551 229.2 16.3247 226.99 17.035C224.78 17.7454 222.551 18.3966 220.301 18.9885C218.052 19.5805 215.861 20.0935 213.73 20.5277C213.612 19.7778 213.336 18.8899 212.901 17.8638C212.467 16.8377 212.053 15.9497 211.658 15.1999C213.592 14.7263 215.546 14.1738 217.519 13.5424C219.532 12.911 221.426 12.2401 223.202 11.5297C225.017 10.8193 226.596 10.109 227.938 9.39858ZM201.713 40.0627L207.455 42.6082C206.035 44.4631 204.397 46.239 202.542 47.936C200.687 49.5935 198.694 51.1721 196.563 52.6717C194.471 54.1319 192.281 55.4343 189.992 56.5788C187.703 57.7627 185.414 58.7493 183.125 59.5386C182.77 58.9466 182.316 58.2757 181.764 57.5259C181.211 56.8155 180.639 56.1249 180.047 55.454C179.455 54.7436 178.903 54.1319 178.39 53.6189C180.639 52.9875 182.889 52.2179 185.138 51.3102C187.388 50.3631 189.538 49.2975 191.591 48.1136C193.682 46.8901 195.576 45.6075 197.273 44.2657C199.01 42.8845 200.49 41.4835 201.713 40.0627ZM212.428 40.0035C214.007 41.8979 215.98 43.6935 218.348 45.3905C220.755 47.0875 223.399 48.6266 226.28 50.0079C229.2 51.3497 232.141 52.4152 235.1 53.2045C234.587 53.6781 234.015 54.2701 233.384 54.9804C232.792 55.6908 232.22 56.4012 231.667 57.1115C231.154 57.8614 230.72 58.552 230.365 59.1834C227.365 58.1179 224.386 56.7564 221.426 55.0988C218.505 53.4018 215.782 51.4878 213.257 49.3567C210.731 47.1861 208.541 44.8972 206.686 42.4898L212.428 40.0035ZM193.13 5.43237H200.115V27.6905L193.13 28.1049V5.43237ZM183.007 10.2865H189.637V29.1113L183.007 29.5848V10.2865Z" fill="#0D2949"/>
<path d="M163.989 17.1534L171.862 20.1132C170.836 22.0076 169.77 23.9611 168.665 25.9738C167.56 27.947 166.455 29.8413 165.35 31.6567C164.285 33.4326 163.239 34.9915 162.213 36.3333L156.116 33.6102C157.023 32.15 157.97 30.4728 158.957 28.5785C159.983 26.6841 160.93 24.7504 161.799 22.7771C162.667 20.7644 163.397 18.8898 163.989 17.1534ZM146.466 6.26111H150.314V24.849C150.314 26.3092 150.472 27.9076 150.788 29.644C151.143 31.3805 151.696 33.1564 152.445 34.9718C153.195 36.7871 154.182 38.6025 155.405 40.4179C156.668 42.2333 158.187 43.9895 159.963 45.6864C161.739 47.3834 163.811 48.9818 166.179 50.4814C168.586 51.9416 171.329 53.244 174.408 54.3884C173.855 54.9015 173.263 55.5526 172.632 56.3419C172 57.1312 171.388 57.9403 170.796 58.769C170.244 59.5978 169.79 60.3476 169.435 61.0185C166.593 59.874 164.028 58.5125 161.739 56.9339C159.45 55.3553 157.418 53.6978 155.642 51.9613C153.906 50.1854 152.406 48.4095 151.143 46.6336C149.88 44.8577 148.854 43.1804 148.065 41.6018C147.315 40.0232 146.762 38.642 146.407 37.458C146.131 38.6814 145.618 40.0824 144.868 41.661C144.158 43.2396 143.191 44.9169 141.967 46.6928C140.784 48.4292 139.343 50.1657 137.646 51.9022C135.989 53.6386 134.035 55.2961 131.786 56.8747C129.576 58.4533 127.089 59.8346 124.327 61.0185C124.011 60.466 123.557 59.8148 122.965 59.065C122.373 58.3152 121.742 57.5653 121.071 56.8155C120.4 56.0657 119.808 55.454 119.295 54.9804C122.886 53.6386 125.984 52.0205 128.589 50.1262C131.233 48.1925 133.443 46.1403 135.219 43.9697C136.995 41.7992 138.416 39.5891 139.481 37.3396C140.586 35.0507 141.375 32.8604 141.849 30.7688C142.362 28.6377 142.619 26.6644 142.619 24.849V6.26111H146.466Z" fill="#0D2949"/>
<path d="M121.687 21.3537L129.274 18.5011C129.845 20.1746 130.548 21.9812 131.385 23.9209C132.222 25.8226 133.135 27.6863 134.124 29.5119C135.074 31.3375 135.987 32.9539 136.862 34.3612L130.986 36.9855C129.997 35.6924 128.989 34.19 127.962 32.4785C126.897 30.729 125.832 28.9034 124.767 27.0017C123.702 25.062 122.675 23.1793 121.687 21.3537Z" fill="#0D2949"/>
<path d="M348.545 90.9128V83.5004H341.214V90.9128H335.838V71.9067H341.214V79.0476H348.545V71.9067H353.921V90.9128H348.545Z" fill="#0D2949"/>
<path d="M325.481 91.2927C319.453 91.2927 315.027 87.1928 315.027 81.4095C315.027 75.6262 319.453 71.5264 325.481 71.5264C328.983 71.5264 331.807 72.8025 333.653 75.1104L330.232 78.2056C329.038 76.7666 327.571 75.9792 325.752 75.9792C322.63 75.9792 320.458 78.1513 320.458 81.4095C320.458 84.6677 322.63 86.8398 325.752 86.8398C327.571 86.8398 329.038 86.0524 330.232 84.6134L333.653 87.7087C331.807 90.0165 328.983 91.2927 325.481 91.2927Z" fill="#0D2949"/>
<path d="M297.762 90.9128V71.9067H312.668V76.0609H303.084V79.2648H311.528V83.2832H303.084V86.7586H313.021V90.9128H297.762Z" fill="#0D2949"/>
<path d="M284.573 90.9128V76.1695H278.736V71.9067H295.76V76.1695H289.949V90.9128H284.573Z" fill="#0D2949"/>
<path d="M267.415 91.2927C261.333 91.2927 256.853 87.1113 256.853 81.4095C256.853 75.7077 261.333 71.5264 267.415 71.5264C273.497 71.5264 277.977 75.7077 277.977 81.4095C277.977 87.1113 273.497 91.2927 267.415 91.2927ZM267.415 86.8398C270.293 86.8398 272.547 84.6948 272.547 81.4095C272.547 78.1242 270.293 75.9792 267.415 75.9792C264.537 75.9792 262.283 78.1242 262.283 81.4095C262.283 84.6948 264.537 86.8398 267.415 86.8398Z" fill="#0D2949"/>
<path d="M248.63 90.9128V71.9067H254.006V90.9128H248.63Z" fill="#0D2949"/>
<path d="M227.762 90.9128V71.9067H237.483C242.479 71.9067 244.922 73.9431 244.922 76.8755C244.922 78.6946 243.972 80.1608 242.343 81.0025C244.515 81.7627 245.845 83.3918 245.845 85.6997C245.845 88.985 243.13 90.9128 238.026 90.9128H227.762ZM233.084 87.0301H237.591C239.438 87.0301 240.415 86.4056 240.415 85.1024C240.415 83.7991 239.438 83.1746 237.591 83.1746H233.084V87.0301ZM233.084 79.4549H236.777C238.569 79.4549 239.492 78.8304 239.492 77.6086C239.492 76.4139 238.569 75.7894 236.777 75.7894H233.084V79.4549Z" fill="#0D2949"/>
<path d="M218.594 90.9128V83.5004H211.263V90.9128H205.887V71.9067H211.263V79.0476H218.594V71.9067H223.97V90.9128H218.594Z" fill="#0D2949"/>
<path d="M195.53 91.2927C189.502 91.2927 185.077 87.1928 185.077 81.4095C185.077 75.6262 189.502 71.5264 195.53 71.5264C199.033 71.5264 201.856 72.8025 203.703 75.1104L200.282 78.2056C199.087 76.7666 197.621 75.9792 195.802 75.9792C192.679 75.9792 190.507 78.1513 190.507 81.4095C190.507 84.6677 192.679 86.8398 195.802 86.8398C197.621 86.8398 199.087 86.0524 200.282 84.6134L203.703 87.7087C201.856 90.0165 199.033 91.2927 195.53 91.2927Z" fill="#0D2949"/>
<path d="M173.13 90.9128V76.1695H167.292V71.9067H184.316V76.1695H178.506V90.9128H173.13Z" fill="#0D2949"/>
<path d="M146.413 90.9128L154.803 71.9067H160.098L168.515 90.9128H162.921L161.428 87.2202H153.391L151.898 90.9128H146.413ZM154.966 83.2561H159.853L157.41 77.1741L154.966 83.2561Z" fill="#0D2949"/>
<path d="M122.789 90.9128V71.9067H127.215L133.894 82.9031L140.41 71.9067H144.836L144.89 90.9128H139.949L139.894 80.8396L135.007 89.0393H132.618L127.758 81.1111V90.9128H122.789Z" fill="#0D2949"/>
</svg>
